<?xml version="1.0" standalone="no"?>
<!DOCTYPE svg PUBLIC "-//W3C//DTD SVG 20010904//EN"
 "http://www.w3.org/TR/2001/REC-SVG-20010904/DTD/svg10.dtd">
<svg version="1.0" xmlns="http://www.w3.org/2000/svg"
 width="142.000000pt" height="171.000000pt" viewBox="0 0 142.000000 171.000000"
 preserveAspectRatio="xMidYMid meet">

<g transform="translate(0.000000,171.000000) scale(0.100000,-0.100000)"
fill="#000000" stroke="none">
<path d="M595 1684 c-46 -24 -55 -37 -13 -20 21 9 59 16 85 17 36 0 43 3 28 9
-31 13 -67 11 -100 -6z"/>
<path d="M574 1610 c-59 -31 -139 -90 -99 -75 123 48 153 55 260 56 l110 1
-50 24 c-73 35 -145 33 -221 -6z"/>
<path d="M624 1546 c-41 -13 -127 -67 -139 -86 -4 -6 17 -1 46 10 75 30 191
43 274 32 39 -5 71 -8 73 -7 2 2 -22 15 -54 30 -67 32 -143 40 -200 21z"/>
<path d="M1159 1520 c-15 -4 -55 -24 -90 -43 -35 -20 -82 -39 -103 -43 l-40
-7 24 -19 c23 -19 56 -21 135 -7 18 4 20 -2 23 -46 2 -44 -3 -60 -44 -130 -41
-71 -93 -192 -61 -141 7 11 43 56 81 100 89 105 99 127 90 221 -5 60 -4 79 10
100 18 27 16 28 -25 15z"/>
<path d="M131 1431 c12 -17 23 -54 28 -102 5 -41 15 -89 24 -105 9 -17 49 -57
89 -90 40 -32 81 -68 90 -79 10 -11 17 -15 18 -10 0 9 -16 32 -111 156 -32 41
-53 102 -44 128 5 17 13 19 58 14 43 -4 57 -1 80 17 38 31 34 40 -20 40 -27 0
-68 10 -93 21 -25 11 -66 24 -92 28 l-46 8 19 -26z"/>
<path d="M701 1438 c-1 -20 -51 -26 -51 -7 0 6 -5 7 -12 2 -7 -4 -24 -6 -38
-5 -24 3 -24 2 -6 -13 11 -8 26 -15 33 -15 7 0 13 -5 13 -11 0 -7 -11 -8 -31
-4 -24 5 -30 4 -27 -6 3 -8 17 -15 31 -17 15 -2 27 -7 27 -11 0 -4 15 -5 32
-3 30 5 32 3 19 -12 -8 -9 -9 -16 -3 -16 6 0 14 9 17 20 3 11 12 20 19 20 7 0
21 7 32 16 18 15 17 15 -13 10 -39 -7 -44 10 -8 24 33 12 33 34 1 26 -15 -4
-26 -1 -29 7 -3 7 -6 5 -6 -5z m-1 -48 c0 -5 -11 -10 -25 -10 -14 0 -25 5 -25
10 0 6 11 10 25 10 14 0 25 -4 25 -10z"/>
<path d="M867 1354 c4 -62 0 -110 -11 -157 -29 -122 -18 -164 74 -277 93 -116
116 -186 82 -252 -24 -47 -19 -50 8 -5 42 68 23 136 -79 277 -57 80 -61 88
-61 141 0 31 7 92 16 135 19 90 15 150 -14 195 l-20 32 5 -89z"/>
<path d="M960 1326 c11 -24 23 -65 26 -91 l7 -46 23 22 c29 27 64 97 64 126 0
19 -5 21 -47 20 -27 -1 -58 2 -70 6 l-22 8 19 -45z"/>
<path d="M366 1324 c-11 -8 -41 -14 -68 -14 -27 0 -48 -5 -48 -10 0 -22 40
-86 73 -118 l34 -33 7 66 c4 36 11 77 17 91 12 33 9 36 -15 18z"/>
<path d="M725 1300 c-16 -16 -25 -33 -22 -37 4 -3 8 -4 10 -2 1 2 12 19 25 37
28 40 24 41 -13 2z"/>
<path d="M424 1220 c6 -201 55 -266 287 -384 150 -77 199 -116 199 -157 0 -74
-57 -123 -163 -142 -55 -9 -71 -8 -110 7 -50 19 -103 71 -113 113 -10 38 7 74
45 100 l34 23 -52 0 c-42 0 -57 -5 -78 -26 -23 -23 -25 -31 -21 -87 4 -55 8
-64 41 -92 46 -40 96 -55 185 -55 91 0 187 30 238 74 37 32 39 37 39 89 0 75
-18 93 -183 175 -144 72 -225 135 -267 206 -30 51 -62 143 -75 211 -7 41 -9
32 -6 -55z"/>
<path d="M604 1293 c18 -36 36 -51 36 -30 0 7 -12 24 -26 38 l-27 24 17 -32z"/>
<path d="M801 1263 c-1 -7 -7 -10 -14 -7 -7 2 -24 -8 -37 -22 -14 -15 -18 -23
-10 -18 8 4 25 7 38 5 23 -3 38 18 29 41 -4 10 -6 10 -6 1z"/>
<path d="M530 1245 c0 -19 32 -36 50 -25 11 7 11 11 1 24 -17 20 -51 21 -51 1z"/>
<path d="M655 1230 c-8 -13 14 -42 26 -34 5 3 9 14 9 25 0 20 -24 26 -35 9z"/>
<path d="M672 1164 c4 -21 22 -23 26 -1 2 10 -3 17 -13 17 -10 0 -15 -6 -13
-16z"/>
<path d="M680 1115 c0 -8 5 -15 10 -15 6 0 10 7 10 15 0 8 -4 15 -10 15 -5 0
-10 -7 -10 -15z"/>
<path d="M696 1050 c14 -52 23 -67 58 -98 20 -18 65 -46 99 -63 34 -17 76 -43
92 -58 l30 -26 -29 32 c-16 18 -59 51 -95 72 -70 42 -118 87 -145 136 -15 26
-16 27 -10 5z"/>
<path d="M137 981 c-62 -68 -59 -152 7 -192 49 -30 100 -25 141 14 37 34 58
85 44 108 -6 11 -13 9 -32 -9 -13 -12 -26 -22 -30 -22 -4 0 -7 20 -7 45 0 67
-16 95 -55 95 -25 0 -41 -9 -68 -39z"/>
<path d="M1140 974 c-41 -37 -51 -69 -28 -92 9 -9 6 -18 -15 -40 -15 -15 -27
-36 -27 -45 0 -27 45 -49 99 -49 58 1 99 19 134 61 27 32 53 98 43 108 -3 4
-7 4 -9 2 -2 -2 -15 -23 -30 -46 -17 -27 -35 -43 -47 -43 -24 0 -26 22 -5 40
8 7 15 24 15 37 0 29 -55 103 -76 103 -8 0 -32 -16 -54 -36z"/>
<path d="M315 790 c-64 -55 -103 -67 -159 -52 -44 12 -40 1 8 -22 67 -32 98
-19 176 74 23 27 40 50 38 50 -2 0 -30 -22 -63 -50z"/>
<path d="M1167 714 c-4 -4 15 -17 41 -29 215 -102 127 -338 -166 -441 -122
-43 -221 -28 -306 46 l-37 33 5 -26 c3 -15 8 -38 11 -52 3 -15 16 -30 31 -35
39 -15 241 -12 304 5 152 40 276 138 306 240 40 139 -27 265 -141 265 -23 0
-45 -3 -48 -6z"/>
<path d="M91 677 c-29 -76 -20 -158 26 -254 34 -71 154 -194 238 -243 74 -44
177 -79 231 -80 64 0 79 23 81 129 2 85 2 86 -11 41 -24 -85 -54 -113 -119
-112 -62 1 -156 54 -245 137 -122 115 -168 220 -138 320 9 27 14 49 13 50 -1
0 -17 8 -35 17 -32 17 -33 17 -41 -5z"/>
<path d="M355 600 c25 -86 89 -159 174 -199 50 -23 68 -26 171 -26 110 0 118
2 188 34 78 37 143 97 168 156 20 49 17 66 -5 29 -75 -124 -254 -200 -410
-175 -116 19 -208 75 -264 161 -18 29 -26 36 -22 20z"/>
<path d="M719 179 c28 -45 28 -105 1 -119 -12 -6 -31 -8 -43 -5 -19 5 -17 1
11 -24 48 -45 91 -41 111 11 18 49 -8 105 -72 150 l-28 20 20 -33z"/>
<path d="M837 115 c21 -42 20 -41 48 -15 36 34 31 45 -19 45 l-44 0 15 -30z"/>
</g>
</svg>
