<?xml version="1.0" standalone="no"?>
<!DOCTYPE svg PUBLIC "-//W3C//DTD SVG 20010904//EN"
 "http://www.w3.org/TR/2001/REC-SVG-20010904/DTD/svg10.dtd">
<svg version="1.0" xmlns="http://www.w3.org/2000/svg"
 width="532.000000pt" height="573.000000pt" viewBox="0 0 532.000000 573.000000"
 preserveAspectRatio="xMidYMid meet">

<g transform="translate(0.000000,573.000000) scale(0.100000,-0.100000)"
fill="#000000" stroke="none">
<path d="M2288 5488 c-63 -128 -133 -266 -156 -305 -41 -70 -407 -565 -422
-571 -10 -4 -210 70 -297 109 -126 56 -255 159 -326 259 -18 25 -18 24 -12
-60 12 -198 93 -404 225 -579 39 -51 68 -96 65 -99 -3 -3 -31 3 -63 13 -83 27
-268 32 -369 10 -189 -41 -298 -107 -473 -285 -69 -70 -144 -141 -166 -158
-53 -40 -158 -91 -206 -98 -21 -4 -38 -10 -38 -14 0 -8 134 -45 221 -60 157
-29 423 -29 539 -1 143 35 328 26 409 -20 l42 -23 -30 -24 c-65 -50 -62 -142
6 -202 46 -40 69 -49 175 -66 99 -15 133 -34 178 -102 67 -102 44 -232 -64
-370 -49 -61 -80 -89 -251 -226 -215 -172 -319 -316 -375 -519 -62 -222 -25
-426 136 -765 215 -453 516 -888 811 -1174 114 -110 91 -101 328 -118 368 -26
819 -22 1115 11 116 13 135 24 279 163 285 277 543 669 756 1151 114 256 138
350 137 535 -1 129 -21 224 -70 333 -66 144 -159 252 -352 405 -202 161 -258
223 -306 339 -32 78 -31 144 2 211 39 78 79 108 156 117 151 16 218 51 238
125 13 48 -4 106 -41 140 l-30 27 23 14 c107 67 226 77 427 34 106 -22 289
-30 410 -16 97 11 282 50 340 73 25 9 23 11 -29 27 -125 40 -178 77 -324 223
-205 206 -297 267 -469 308 -103 25 -278 27 -378 4 -38 -9 -74 -14 -79 -12 -6
2 17 39 50 82 122 159 197 334 226 527 19 131 16 143 -21 90 -34 -50 -141
-137 -229 -186 -64 -36 -307 -135 -330 -135 -8 0 -17 7 -20 16 -3 9 -69 116
-145 237 -169 271 -247 408 -371 650 l-95 187 -322 0 -322 0 -113 -232z m320
-1045 l3 -351 -45 -27 c-65 -38 -114 -43 -168 -16 -53 26 -95 62 -113 98 -45
87 49 387 225 718 l85 160 5 -115 c3 -63 6 -273 8 -467z m102 473 c0 -2 30
-53 66 -113 103 -170 153 -266 160 -311 9 -55 -13 -195 -38 -249 -36 -77 -119
-133 -196 -133 l-39 0 -6 278 c-4 152 -7 356 -7 451 l0 175 30 -47 c17 -26 30
-49 30 -51z m471 77 c13 -16 12 -17 -3 -4 -17 13 -22 21 -14 21 2 0 10 -8 17
-17z m-1233 -180 c-14 -16 -34 -38 -44 -51 -11 -13 -28 -28 -39 -34 -11 -6 7
17 40 51 59 60 92 86 43 34z m-715 -27 c23 -18 65 -45 92 -59 53 -27 272 -116
340 -137 22 -7 54 -19 70 -25 17 -7 41 -16 55 -20 70 -21 332 -149 354 -174
12 -13 19 -34 18 -56 -2 -64 -41 -115 -111 -147 -69 -31 -85 -29 -147 17 -31
23 -93 62 -137 85 -249 132 -388 254 -542 474 -62 88 -60 98 8 42z m2882 -33
c-107 -156 -296 -331 -476 -439 -78 -47 -197 -137 -262 -198 -112 -105 -178
-58 -176 126 1 120 7 138 54 169 63 40 256 123 425 183 85 29 197 72 249 95
88 39 194 102 207 122 3 5 10 9 15 9 5 0 -11 -30 -36 -67z m82 -30 c-31 -105
-78 -202 -110 -227 -112 -87 -219 -166 -227 -166 -5 0 -13 -6 -17 -13 -4 -7
-42 -35 -83 -63 -137 -94 -373 -201 -332 -151 14 17 169 137 177 137 9 0 161
105 230 159 118 92 276 262 343 369 21 33 28 38 30 23 2 -11 -3 -41 -11 -68z
m-2941 -94 c5 -9 28 -38 52 -64 23 -26 42 -51 42 -56 0 -5 4 -9 8 -9 5 0 27
-18 50 -40 66 -62 191 -151 269 -191 39 -21 68 -41 65 -45 -4 -4 -1 -4 5 0 16
9 36 -2 120 -66 99 -75 116 -96 109 -138 -8 -52 -40 -73 -101 -67 -61 6 -232
83 -243 110 -2 4 -10 7 -18 7 -22 0 -169 145 -249 245 -100 126 -169 245 -205
354 -44 136 -39 145 28 54 32 -43 62 -85 68 -94z m9 -396 c54 -11 75 -20 92
-41 13 -15 23 -30 23 -33 0 -14 113 -214 127 -224 8 -6 14 -19 12 -28 -4 -14
-8 -15 -34 -3 -123 53 -219 77 -341 83 -123 6 -227 -11 -319 -52 -50 -23 -183
-72 -220 -82 -11 -2 -33 -11 -50 -18 -56 -25 -284 -89 -291 -82 -3 2 15 17 38
32 24 16 108 95 188 175 149 150 208 194 333 242 120 47 300 60 442 31z m3170
-3 c47 -13 70 -22 147 -61 101 -51 180 -114 284 -226 56 -59 129 -128 162
-153 34 -24 60 -46 58 -48 -21 -21 -406 87 -478 134 -21 13 -40 24 -42 24 -3
0 -43 18 -88 40 -108 53 -192 67 -319 52 -52 -6 -122 -20 -157 -32 -34 -11
-67 -18 -72 -15 -19 12 -9 44 22 72 69 61 97 94 118 140 34 76 36 78 66 85 40
10 250 1 299 -12z m30 -323 c39 -20 80 -44 90 -52 20 -16 20 -16 0 -11 -11 3
-37 8 -57 12 -21 3 -42 12 -49 20 -7 9 -31 14 -65 14 -29 0 -55 3 -58 8 -2 4
-67 4 -143 -1 -151 -9 -222 -3 -188 15 43 25 126 35 260 34 l140 -2 70 -37z
m-3438 13 c57 -34 87 -123 67 -197 -6 -22 -12 -23 -93 -23 -47 0 -112 -6 -144
-14 -58 -14 -58 -13 -75 12 -33 50 -15 172 27 186 9 3 48 17 86 30 85 31 91
31 132 6z m338 -374 c96 -20 314 -44 535 -58 254 -17 1345 -17 1590 0 196 14
396 35 495 53 58 10 60 10 82 -16 27 -31 30 -80 7 -113 -31 -44 -83 -58 -289
-76 -38 -4 -113 -11 -165 -16 -456 -46 -1299 -43 -1870 6 -266 22 -416 42
-453 60 -65 31 -91 120 -46 156 26 22 26 22 114 4z m430 -276 c588 -49 1454
-46 1887 6 l58 7 -33 -56 c-17 -31 -39 -59 -47 -61 -23 -8 -307 -34 -505 -47
-363 -23 -936 -10 -1330 31 -157 16 -160 17 -184 60 -11 20 -28 43 -36 50 -26
21 -17 30 28 25 23 -3 96 -9 162 -15z m165 -160 c302 -30 698 -42 987 -30 247
10 533 32 649 50 33 6 65 10 70 10 5 0 9 -21 9 -47 0 -27 3 -64 8 -84 9 -44 7
-45 -143 -59 -635 -60 -1092 -61 -1665 -4 -238 23 -235 22 -226 48 11 28 11
27 11 92 l0 57 53 -7 c28 -3 140 -15 247 -26z m-160 -184 c19 -3 121 -14 225
-23 268 -25 1090 -25 1340 1 94 9 197 19 230 22 33 2 70 7 82 9 15 4 23 -1 27
-13 4 -11 24 -43 46 -72 22 -29 39 -54 37 -56 -4 -4 -176 -34 -311 -54 -635
-93 -1306 -87 -1841 16 -44 9 -83 19 -88 23 -4 4 13 38 38 75 25 37 45 72 45
78 0 10 83 7 170 -6z m2040 -164 c0 -7 212 -185 243 -204 16 -10 7 -16 -33
-23 -19 -3 -60 -12 -90 -20 -207 -53 -617 -112 -870 -127 -83 -5 -798 -1 -855
5 -27 2 -86 7 -130 11 -151 12 -525 77 -694 121 -31 8 -74 17 -96 21 -46 7
-49 9 -40 24 4 6 14 9 22 6 8 -3 11 -2 8 3 -3 5 30 38 72 73 43 35 86 71 95
81 20 19 33 20 93 8 l40 -9 -40 -1 c-108 -4 -151 -145 -61 -200 49 -31 101
-28 136 8 52 52 52 113 -2 163 l-30 28 29 0 c16 0 33 -3 36 -7 4 -3 17 -7 30
-8 12 -1 52 -5 90 -10 56 -6 65 -10 56 -21 -6 -8 -17 -14 -25 -14 -22 0 -54
-56 -54 -95 0 -98 123 -151 189 -81 43 46 37 136 -13 172 -23 18 -32 18 269
-7 172 -15 755 -6 940 15 77 8 194 23 260 31 66 9 138 18 160 20 52 4 239 36
244 41 7 7 21 4 21 -4z m-2212 -85 c35 -32 30 -88 -10 -122 -38 -32 -81 -29
-115 11 -73 82 42 185 125 111z m306 -39 c40 -35 43 -78 11 -116 -32 -39 -79
-43 -119 -11 -21 17 -26 29 -26 65 0 39 4 47 33 64 42 26 70 25 101 -2z m-608
-122 c150 -44 504 -106 784 -138 169 -19 247 -22 585 -22 337 0 418 3 595 23
300 32 623 86 770 128 l55 15 75 -79 c88 -93 158 -207 196 -318 32 -95 44
-266 25 -368 -35 -184 -202 -569 -366 -842 -67 -113 -172 -272 -183 -279 -5
-3 -63 -14 -128 -25 -451 -76 -680 -95 -1134 -95 -424 -1 -599 12 -938 71
l-153 26 -52 71 c-153 208 -379 619 -460 836 -59 159 -77 244 -77 372 1 224
71 389 239 561 81 83 88 86 167 63z m2483 -1973 c-24 -32 -69 -89 -102 -128
-32 -38 -73 -87 -90 -107 -26 -31 -39 -38 -81 -43 -664 -73 -1045 -79 -1536
-24 -102 12 -194 21 -205 21 -11 1 -31 15 -45 32 -24 29 -24 30 -2 15 15 -11
36 -15 65 -12 77 9 126 85 95 149 -16 35 -73 74 -107 74 -65 0 -122 -74 -106
-138 5 -20 4 -24 -5 -16 -17 16 -169 219 -166 221 1 1 40 -6 86 -16 47 -10
123 -24 170 -30 47 -7 112 -16 145 -21 33 -5 98 -12 145 -15 47 -4 101 -8 120
-10 175 -20 708 -14 960 11 188 18 424 49 560 73 153 27 147 30 99 -36z
m-1958 -66 c46 -35 50 -88 10 -128 -57 -56 -141 -23 -141 56 0 66 81 111 131
72z m214 -272 c441 -41 981 -34 1346 16 121 17 124 12 39 -57 l-75 -61 -155
-14 c-103 -9 -295 -14 -570 -13 -426 0 -656 13 -695 39 -11 8 -45 37 -75 65
l-55 51 40 -5 c22 -3 112 -13 200 -21z"/>
<path d="M3719 2715 c-15 -8 -34 -31 -44 -51 -15 -31 -15 -43 -6 -76 25 -82
135 -104 193 -39 83 93 -32 226 -143 166z m120 -36 c14 -14 21 -32 21 -59 0
-77 -95 -117 -143 -59 -28 34 -31 65 -10 101 28 49 89 56 132 17z"/>
<path d="M3384 2656 c-47 -47 -48 -100 -3 -151 27 -31 37 -35 79 -35 57 0 93
25 110 75 24 74 -32 145 -115 145 -29 0 -44 -7 -71 -34z m141 -22 c62 -66 -12
-168 -95 -134 -50 21 -65 88 -29 134 29 37 90 37 124 0z"/>
<path d="M2163 2639 c-90 -26 -102 -177 -17 -209 33 -13 81 -13 89 0 4 6 10 8
15 5 13 -8 60 66 60 95 0 38 -36 90 -75 106 -19 8 -36 14 -37 13 -2 0 -17 -5
-35 -10z m88 -48 c57 -57 23 -143 -56 -143 -80 0 -116 95 -54 146 40 34 74 33
110 -3z"/>
<path d="M3071 2621 c-27 -25 -31 -36 -31 -78 1 -72 43 -113 117 -113 53 0
103 54 103 110 0 34 -6 48 -34 76 -29 29 -41 34 -79 34 -36 0 -51 -6 -76 -29z
m112 -3 c50 -26 62 -86 26 -132 -16 -21 -29 -26 -63 -26 -49 0 -72 19 -82 68
-13 67 59 122 119 90z"/>
<path d="M2444 2601 c-15 -17 -30 -28 -33 -26 -3 2 -7 -9 -8 -23 -5 -92 33
-142 105 -142 57 0 97 24 110 67 34 110 -98 204 -174 124z m131 -27 c34 -37
33 -78 -4 -115 -33 -32 -58 -36 -100 -14 -32 16 -41 33 -41 76 0 72 96 106
145 53z"/>
<path d="M2760 2603 c-78 -70 -33 -193 71 -193 99 0 145 109 78 185 -27 30
-37 35 -75 35 -34 0 -51 -6 -74 -27z m109 -8 c95 -48 31 -189 -69 -153 -65 22
-72 120 -11 153 33 18 46 18 80 0z"/>
<path d="M2040 2550 c20 -13 40 -13 40 0 0 6 -12 10 -27 10 -22 0 -25 -2 -13
-10z"/>
<path d="M3970 2375 c-41 -14 -101 -42 -134 -63 -56 -37 -116 -109 -116 -140
0 -9 -8 -5 -21 12 -31 39 -84 62 -172 76 -85 13 -210 5 -204 -13 7 -22 114
-88 192 -118 51 -20 105 -33 152 -36 65 -5 77 -3 129 23 74 37 184 140 229
213 19 32 35 61 35 65 0 9 -8 7 -90 -19z m23 -46 c-29 -51 -105 -124 -174
-169 -60 -39 -64 -40 -67 -21 -6 35 18 89 50 116 42 35 143 86 206 104 2 1 -5
-13 -15 -30z m-409 -105 c50 -17 116 -74 116 -99 0 -38 -169 8 -273 75 l-62
40 86 0 c53 0 103 -6 133 -16z"/>
<path d="M1304 2348 c42 -70 121 -152 195 -203 61 -42 80 -49 129 -53 73 -5
160 16 255 63 77 39 145 90 134 102 -4 4 -53 7 -110 7 -123 1 -198 -20 -253
-70 -20 -19 -38 -34 -39 -34 -1 0 -5 13 -8 30 -8 40 -65 100 -126 134 -57 30
-155 66 -183 66 -18 0 -17 -3 6 -42z m131 -31 c33 -16 72 -38 88 -49 32 -23
67 -86 67 -123 0 -25 0 -26 -32 -9 -29 14 -78 52 -156 119 -12 10 -20 25 -17
33 2 7 1 11 -4 8 -7 -5 -51 46 -51 59 0 10 38 -4 105 -38z m525 -85 c0 -14
-139 -83 -207 -103 -82 -23 -113 -24 -113 -4 0 26 75 92 116 103 47 12 204 15
204 4z"/>
<path d="M2610 2273 c-63 -8 -174 -44 -248 -80 -260 -126 -432 -405 -432 -698
0 -49 5 -108 11 -130 5 -22 11 -51 14 -65 14 -90 93 -234 181 -329 160 -172
347 -254 579 -253 377 1 686 256 761 625 20 97 14 269 -11 362 -90 323 -384
556 -720 569 -55 2 -116 2 -135 -1z m213 -34 c136 -21 305 -100 379 -176 l32
-33 -297 0 -297 0 0 -230 0 -230 -165 0 -165 0 0 48 c-1 26 0 129 0 230 l1
182 -56 0 c-30 0 -55 5 -55 10 0 13 113 96 170 125 147 74 297 98 453 74z
m556 -403 c109 -219 109 -467 0 -684 -62 -122 -180 -244 -312 -320 -53 -30
-220 -80 -297 -87 -178 -18 -416 61 -549 182 l-46 42 298 1 297 0 0 230 0 230
165 0 165 0 0 -230 0 -231 68 3 67 3 0 295 0 295 -60 1 c-33 1 -138 2 -233 3
l-172 1 2 161 3 160 230 2 230 2 3 65 4 65 48 -54 c27 -29 67 -90 89 -135z
m-974 -406 l235 0 -2 -162 -3 -163 -232 -3 -232 -2 -3 -63 -3 -62 -46 60 c-54
70 -97 153 -130 250 -20 60 -24 90 -24 205 0 114 4 147 23 210 31 97 80 193
134 260 l43 55 3 -292 2 -293 235 0z m546 570 l259 0 0 -40 0 -41 -212 3 -213
3 -6 30 -7 30 -1 -32 c0 -17 -7 -33 -13 -35 -10 -4 -13 -50 -13 -189 l0 -184
228 -2 c126 -1 231 -4 234 -6 6 -7 4 -528 -3 -538 -3 -5 -21 -9 -39 -9 l-35 0
-2 233 -3 232 -190 0 -190 0 -3 -229 c-1 -126 -3 -230 -5 -231 -1 -1 -122 1
-269 3 l-268 4 0 37 0 36 230 -1 230 -1 0 193 0 194 -229 0 -230 0 -3 48 c-2
26 -2 147 0 270 l3 222 39 0 40 0 2 -177 c2 -137 0 -183 -11 -200 -8 -14 -9
-23 -3 -23 6 0 12 -12 14 -27 l3 -28 188 -3 187 -2 1 202 c1 112 1 218 0 237
-2 28 0 33 14 27 9 -3 133 -6 276 -6z"/>
<path d="M1352 1969 c-13 -5 -29 -22 -35 -39 -10 -27 -14 -29 -49 -24 -54 9
-85 -2 -104 -37 -15 -30 -15 -54 0 -90 5 -12 0 -18 -18 -23 -28 -7 -56 -51
-56 -88 0 -31 26 -67 56 -79 21 -7 23 -12 14 -28 -39 -73 48 -160 121 -121 16
9 21 7 28 -14 22 -57 103 -75 146 -31 14 13 25 32 25 41 0 12 5 14 18 8 9 -4
34 -8 56 -8 55 0 80 32 73 97 -4 43 -2 50 18 57 29 11 55 53 55 88 0 28 -44
82 -67 82 -6 0 -8 19 -5 50 4 44 1 55 -19 76 -21 23 -30 25 -76 21 -46 -5 -52
-3 -57 16 -6 25 -54 57 -83 56 -10 0 -29 -4 -41 -10z m95 -45 c32 -50 -21
-119 -73 -96 -34 16 -50 55 -36 87 22 47 80 52 109 9z m-169 -50 c15 -10 22
-25 22 -48 0 -40 -20 -59 -62 -59 -54 0 -78 63 -38 103 24 24 48 25 78 4z
m312 -4 c39 -39 19 -97 -37 -104 -56 -6 -88 53 -52 97 25 32 61 35 89 7z
m-230 -65 c0 -2 -7 -5 -15 -9 -9 -3 -15 0 -15 9 0 9 6 12 15 9 8 -4 15 -7 15
-9z m100 -5 c0 -5 -7 -7 -15 -4 -8 4 -15 8 -15 10 0 2 7 4 15 4 8 0 15 -4 15
-10z m8 -42 c8 -7 21 -28 29 -46 37 -89 -67 -183 -154 -138 -39 20 -67 77 -59
120 15 79 121 116 184 64z m-240 -46 c18 -23 15 -66 -7 -86 -26 -24 -70 -17
-92 14 -25 33 -15 69 24 85 34 14 55 10 75 -13z m42 12 c0 -8 -4 -12 -10 -9
-5 3 -10 10 -10 16 0 5 5 9 10 9 6 0 10 -7 10 -16z m270 7 c0 -17 -18 -21 -24
-6 -3 9 0 15 9 15 8 0 15 -4 15 -9z m118 -14 c8 -6 12 -25 10 -46 -2 -27 -10
-39 -30 -51 -25 -13 -31 -13 -55 0 -30 17 -38 38 -29 76 10 40 66 52 104 21z
m-131 -109 c-15 -9 -19 -4 -11 16 5 14 9 15 15 5 5 -8 3 -17 -4 -21z m-256 9
c-1 -12 -15 -9 -19 4 -3 6 1 10 8 8 6 -3 11 -8 11 -12z m13 -53 c23 -22 21
-81 -3 -94 -67 -35 -128 27 -85 88 18 26 65 30 88 6z m316 -16 c13 -25 13 -31
0 -55 -12 -21 -25 -29 -50 -31 -30 -2 -38 2 -53 27 -22 37 -21 42 4 70 29 31
78 26 99 -11z m-245 -8 c-3 -5 -10 -10 -16 -10 -5 0 -9 5 -9 10 0 6 7 10 16
10 8 0 12 -4 9 -10z m105 0 c0 -5 -4 -10 -9 -10 -6 0 -13 5 -16 10 -3 6 1 10
9 10 9 0 16 -4 16 -10z m-27 -32 c41 -32 24 -97 -30 -113 -34 -9 -77 37 -68
72 11 47 62 68 98 41z"/>
<path d="M3907 1969 c-9 -5 -24 -23 -32 -39 -14 -26 -18 -28 -44 -19 -22 8
-38 6 -65 -5 -51 -21 -67 -68 -42 -127 5 -12 0 -18 -19 -23 -16 -4 -32 -19
-42 -41 -22 -45 -8 -92 34 -121 23 -15 29 -25 22 -35 -18 -29 -9 -70 22 -101
28 -28 34 -30 80 -25 36 5 49 3 49 -7 0 -26 45 -56 86 -56 40 0 84 30 84 58 0
7 16 9 49 5 46 -5 52 -3 80 25 33 33 42 87 19 110 -8 8 -9 12 -1 12 6 0 25 12
42 26 25 21 31 33 31 65 0 43 -34 89 -65 89 -12 0 -14 4 -5 19 15 28 12 73 -5
98 -21 30 -75 46 -108 34 -24 -9 -28 -7 -42 19 -8 16 -24 34 -34 40 -25 13
-71 12 -94 -1z m100 -46 c12 -18 14 -31 7 -51 -19 -54 -90 -61 -108 -10 -28
77 57 128 101 61z m-158 -60 c33 -40 12 -87 -42 -97 -19 -3 -33 1 -47 17 -23
24 -25 39 -9 70 24 45 67 50 98 10z m301 7 c22 -22 26 -51 10 -81 -8 -14 -21
-19 -50 -19 -29 0 -42 5 -50 19 -36 68 37 134 90 81z m-230 -64 c0 -2 -7 -7
-16 -10 -8 -3 -12 -2 -9 4 6 10 25 14 25 6z m100 -6 c0 -5 -2 -10 -4 -10 -3 0
-8 5 -11 10 -3 6 -1 10 4 10 6 0 11 -4 11 -10z m10 -45 c80 -72 17 -208 -88
-192 -112 18 -126 187 -19 215 37 10 82 0 107 -23z m-236 -54 c37 -72 -61
-129 -104 -59 -17 28 -17 34 -5 59 24 45 86 45 109 0z m429 7 c9 -11 17 -29
17 -39 0 -25 -39 -59 -67 -59 -48 0 -80 63 -50 101 26 33 69 32 100 -3z m-123
18 c0 -3 -4 -8 -10 -11 -5 -3 -10 -1 -10 4 0 6 5 11 10 11 6 0 10 -2 10 -4z
m0 -107 c0 -5 -4 -9 -10 -9 -5 0 -10 7 -10 16 0 8 5 12 10 9 6 -3 10 -10 10
-16z m-270 1 c0 -5 -5 -10 -11 -10 -5 0 -7 5 -4 10 3 6 8 10 11 10 2 0 4 -4 4
-10z m-5 -50 c-3 -5 0 -7 8 -4 22 8 39 -40 25 -71 -25 -55 -118 -36 -118 25 0
30 30 60 61 60 17 0 28 -4 24 -10z m329 -12 c21 -30 20 -54 -4 -78 -40 -40
-100 -16 -100 40 0 16 7 36 16 44 23 24 70 20 88 -6z m-134 -18 c0 -5 -2 -10
-4 -10 -3 0 -8 5 -11 10 -3 6 -1 10 4 10 6 0 11 -4 11 -10z m-4 -67 c8 -31 -3
-53 -38 -72 -23 -13 -29 -13 -52 2 -21 14 -26 25 -26 57 0 28 5 42 19 49 10 6
21 7 25 4 3 -3 6 -1 6 6 0 22 59 -18 66 -46z"/>
<path d="M3464 486 c-75 -75 -24 -186 84 -186 54 0 102 51 102 110 0 30 -8 48
-31 75 -27 30 -37 35 -76 35 -38 0 -50 -5 -79 -34z m138 -13 c25 -22 32 -67
14 -101 -17 -33 -34 -42 -79 -42 -65 1 -99 62 -69 121 25 49 91 59 134 22z"/>
<path d="M3180 463 c-98 -87 8 -238 124 -178 15 8 31 13 35 11 4 -3 8 3 9 12
15 118 16 110 -21 147 -46 46 -101 49 -147 8z m138 -29 c56 -64 -12 -165 -91
-135 -39 15 -57 40 -57 79 0 42 5 51 40 76 32 22 78 14 108 -20z"/>
<path d="M2023 461 c-43 -36 -55 -103 -27 -147 43 -65 144 -70 186 -10 35 49
23 127 -23 160 -32 22 -108 20 -136 -3z m135 -37 c26 -29 28 -54 7 -93 -16
-32 -33 -41 -78 -41 -44 0 -77 34 -77 80 0 83 92 117 148 54z"/>
<path d="M2904 451 c-61 -37 -69 -119 -17 -173 22 -23 35 -28 76 -28 42 0 53
4 78 31 24 25 29 40 29 78 -1 92 -87 140 -166 92z m115 -28 c12 -10 24 -35 28
-55 5 -32 1 -41 -25 -68 -34 -33 -59 -37 -101 -15 -32 16 -41 33 -41 78 0 66
86 103 139 60z"/>
<path d="M2322 450 c-34 -15 -56 -69 -48 -121 9 -58 43 -84 109 -84 42 0 52 4
78 33 38 42 40 103 6 146 -19 23 -32 29 -73 32 -27 2 -59 0 -72 -6z m111 -30
c52 -41 40 -124 -22 -149 -31 -13 -56 -6 -93 27 -20 17 -24 72 -7 103 21 40
83 50 122 19z"/>
<path d="M2595 424 c-58 -63 -37 -156 43 -184 40 -14 46 -13 80 5 111 60 76
205 -50 205 -40 0 -53 -5 -73 -26z m139 -25 c28 -33 32 -59 14 -92 -17 -33
-39 -46 -79 -47 -59 0 -98 61 -74 117 26 62 97 73 139 22z"/>
</g>
</svg>
