<?xml version="1.0" standalone="no"?>
<!DOCTYPE svg PUBLIC "-//W3C//DTD SVG 20010904//EN"
 "http://www.w3.org/TR/2001/REC-SVG-20010904/DTD/svg10.dtd">
<svg version="1.0" xmlns="http://www.w3.org/2000/svg"
 width="504.000000pt" height="501.000000pt" viewBox="0 0 504.000000 501.000000"
 preserveAspectRatio="xMidYMid meet">

<g transform="translate(0.000000,501.000000) scale(0.100000,-0.100000)"
fill="#000000" stroke="none">
<path d="M2318 4939 c-10 -5 -18 -16 -18 -22 0 -7 -9 -19 -20 -27 -11 -8 -20
-20 -20 -27 0 -7 -11 -32 -24 -55 -13 -24 -21 -49 -19 -56 3 -7 -2 -24 -11
-37 -9 -13 -16 -36 -16 -50 0 -14 -4 -25 -10 -25 -5 0 -10 -9 -10 -20 0 -11
-4 -20 -10 -20 -5 0 -10 -7 -10 -15 0 -8 -4 -15 -10 -15 -5 0 -10 -6 -10 -14
0 -21 -55 -145 -74 -167 -9 -11 -16 -30 -16 -44 0 -14 -4 -25 -10 -25 -5 0
-10 -7 -10 -15 0 -8 -4 -15 -10 -15 -5 0 -10 -8 -10 -17 0 -10 -7 -27 -15 -37
-8 -11 -15 -28 -15 -37 0 -10 -6 -20 -12 -22 -8 -4 -3 -9 11 -13 20 -6 22 -9
9 -18 -8 -6 -23 -37 -33 -68 -10 -32 -22 -58 -26 -58 -5 0 -9 -13 -9 -30 0
-16 -4 -30 -10 -30 -5 0 -10 -6 -10 -14 0 -13 -39 -109 -61 -148 -5 -10 -9
-27 -9 -38 0 -11 -4 -20 -10 -20 -5 0 -10 -9 -10 -20 0 -11 -4 -20 -10 -20 -5
0 -10 -9 -10 -20 0 -11 -4 -28 -10 -38 -20 -36 -60 -133 -60 -145 0 -18 -24
-67 -32 -67 -5 0 -8 -13 -8 -29 0 -16 -3 -31 -7 -33 -13 -5 -43 -68 -43 -89 0
-10 -4 -19 -10 -19 -5 0 -10 -11 -10 -24 0 -14 -4 -28 -10 -31 -5 -3 -10 -17
-10 -31 0 -13 -4 -24 -10 -24 -5 0 -10 -11 -10 -25 0 -14 -4 -25 -10 -25 -5 0
-10 -8 -10 -19 0 -10 -7 -24 -15 -31 -8 -7 -15 -27 -15 -45 0 -33 -37 -115
-52 -115 -4 0 -8 -18 -8 -41 0 -22 -5 -50 -11 -62 -9 -16 -9 -22 0 -25 7 -2
11 -42 11 -123 0 -73 4 -119 10 -119 6 0 10 -29 10 -68 0 -38 3 -71 6 -74 3
-3 8 -46 10 -94 3 -49 9 -91 14 -94 5 -3 12 -33 16 -68 3 -34 11 -62 15 -62 5
0 9 -9 9 -20 0 -37 24 -150 32 -150 5 0 8 -20 8 -45 0 -25 4 -45 9 -45 5 0 9
-41 8 -90 0 -50 -4 -90 -8 -90 -11 0 -12 -44 -2 -54 10 -10 11 -76 1 -76 -4 0
-8 -7 -8 -16 0 -25 -61 -74 -93 -74 -21 0 -41 -14 -77 -52 -27 -29 -50 -59
-50 -65 0 -7 -9 -13 -20 -13 -11 0 -20 -6 -20 -14 0 -15 -87 -109 -117 -124
-12 -7 -25 -7 -34 -1 -7 5 -30 9 -50 9 -19 0 -39 4 -45 8 -5 5 -35 15 -67 22
-47 11 -68 11 -103 2 -24 -7 -55 -12 -69 -12 -13 0 -27 -4 -30 -10 -3 -5 -15
-10 -25 -10 -23 0 -134 -49 -138 -61 -2 -5 -10 -9 -19 -9 -14 0 -73 -55 -73
-69 0 -3 -13 -21 -28 -39 -46 -53 -65 -121 -57 -197 3 -36 11 -65 16 -65 5 0
9 -11 9 -24 0 -14 4 -27 9 -31 21 -12 0 -75 -25 -75 -3 0 -14 -8 -23 -18 -9
-10 -34 -31 -56 -48 -22 -16 -57 -46 -77 -67 -20 -20 -40 -37 -45 -37 -5 0
-34 -27 -66 -60 -32 -33 -62 -60 -66 -60 -10 0 -91 -88 -91 -100 0 -5 9 -12
20 -15 11 -4 32 -17 45 -31 13 -13 29 -24 35 -24 5 0 10 -4 10 -8 0 -4 13 -15
29 -25 28 -16 61 -14 61 4 0 5 7 9 16 9 9 0 29 14 44 30 15 17 31 30 34 30 4
0 22 15 41 32 63 59 81 75 111 94 16 10 41 31 56 46 14 16 31 28 36 28 6 0 12
6 14 12 3 9 9 8 21 -4 9 -9 17 -21 17 -26 0 -6 4 -12 8 -14 5 -2 23 -24 41
-50 17 -27 38 -48 46 -48 8 0 15 -6 16 -12 0 -15 117 -114 174 -148 22 -13 42
-27 45 -30 3 -4 15 -12 27 -19 28 -14 343 -16 343 -1 0 6 -12 10 -27 10 -16 0
-59 16 -98 35 -38 19 -76 35 -82 35 -7 0 -13 5 -13 10 0 6 -9 10 -20 10 -11 0
-20 5 -20 10 0 6 -7 10 -15 10 -8 0 -15 4 -15 8 0 5 -11 14 -25 20 -32 15 -40
22 -121 98 -35 34 -64 65 -64 69 0 4 -16 23 -35 42 -19 19 -35 42 -35 50 0 9
-8 23 -18 32 -22 19 -72 108 -72 127 0 8 -4 14 -9 14 -9 0 -19 37 -28 108 -3
23 -9 42 -14 42 -5 0 -9 36 -9 80 0 47 4 80 10 80 6 0 10 7 10 16 0 22 90 103
123 110 15 4 27 10 27 15 0 5 11 9 24 9 14 0 28 5 31 10 3 6 17 10 31 10 20 0
24 -5 24 -30 0 -16 -4 -30 -10 -30 -6 0 -10 -40 -10 -100 0 -55 3 -100 8 -100
4 0 16 -29 27 -65 10 -36 22 -65 25 -65 4 0 12 -16 20 -35 8 -19 17 -35 22
-35 4 0 8 -8 8 -17 0 -20 245 -263 265 -263 7 0 15 -3 17 -7 5 -13 117 -63
138 -63 11 0 20 -4 20 -10 0 -13 213 -14 238 -1 28 14 104 30 119 24 15 -6 18
-33 3 -33 -5 0 -10 -13 -10 -28 0 -44 -36 -107 -91 -162 l-50 -50 110 0 111 0
6 28 c3 15 10 37 15 50 13 32 11 151 -3 212 -7 33 -23 63 -40 80 -15 16 -28
38 -28 49 0 12 25 45 58 78 32 32 63 66 68 75 5 9 34 43 65 75 30 32 68 76 84
98 17 22 42 52 57 67 16 14 28 30 28 36 0 5 20 31 45 56 25 26 45 52 45 57 0
5 3 9 8 9 4 0 20 21 37 48 16 26 37 54 47 63 10 9 18 21 18 28 0 6 4 11 8 11
5 0 15 12 23 27 8 15 23 38 34 51 l19 22 23 -24 c13 -14 23 -28 23 -30 0 -5
54 -81 80 -113 6 -7 10 -19 10 -28 0 -8 5 -15 10 -15 6 0 10 -7 10 -15 0 -8 5
-15 10 -15 6 0 10 -7 10 -15 0 -13 13 -30 71 -90 10 -12 19 -24 19 -29 0 -4
13 -20 28 -34 16 -15 31 -34 35 -42 18 -38 44 -74 62 -84 24 -14 45 -33 45
-41 0 -10 89 -95 100 -95 6 0 10 -7 10 -15 0 -8 4 -15 9 -15 5 0 12 -15 16
-33 6 -31 18 -63 36 -99 5 -10 9 -58 9 -108 0 -49 3 -90 8 -90 8 0 32 -48 32
-65 0 -6 9 -17 20 -25 11 -8 20 -19 20 -25 0 -5 14 -25 30 -43 30 -32 30 -32
125 -32 57 0 95 4 95 10 0 6 -4 10 -10 10 -5 0 -10 6 -10 13 0 7 -11 24 -25
39 -14 15 -25 34 -25 43 0 8 -4 15 -10 15 -5 0 -10 9 -10 20 0 11 -6 20 -12
20 -9 1 -8 4 2 9 8 5 56 11 106 14 50 4 103 13 119 21 15 8 34 12 41 9 8 -3
14 0 14 6 0 6 9 11 20 11 11 0 20 4 20 9 0 5 13 11 29 14 16 3 35 12 42 19 8
7 27 19 42 26 15 6 30 19 33 27 4 8 14 15 23 15 9 0 23 9 31 20 8 11 19 20 25
20 12 0 85 68 85 80 0 5 18 27 40 49 22 22 40 43 40 47 0 4 11 22 26 41 14 18
30 47 36 63 5 17 14 30 19 30 5 0 9 9 9 20 0 11 5 20 10 20 6 0 10 13 10 29 0
17 5 33 10 36 6 3 10 31 10 61 0 47 3 54 19 54 16 0 21 -10 27 -47 9 -59 -2
-233 -16 -247 -5 -5 -10 -19 -10 -31 0 -11 -15 -52 -34 -90 -26 -54 -54 -89
-120 -153 -47 -45 -86 -85 -86 -87 0 -3 9 -5 20 -5 32 0 117 47 159 88 22 20
60 55 85 77 25 22 45 47 46 56 0 9 6 19 14 22 26 10 76 142 76 199 0 31 12 42
40 33 13 -4 20 -15 20 -31 0 -13 5 -24 10 -24 14 0 13 -195 -1 -239 -14 -43
-28 -80 -40 -103 -5 -10 -9 -24 -9 -32 0 -19 -41 -82 -80 -123 -16 -18 -30
-36 -30 -40 0 -5 -31 -39 -70 -76 l-69 -67 90 0 c82 0 92 2 114 25 14 13 25
27 25 31 0 3 14 19 30 34 17 15 30 32 30 37 0 6 9 18 20 28 21 19 50 71 50 89
0 7 9 18 20 26 11 8 20 22 20 32 0 23 21 68 32 68 23 0 168 -131 168 -153 0
-5 14 -22 30 -37 17 -15 30 -31 30 -36 0 -4 27 -34 60 -66 33 -33 60 -64 60
-69 0 -5 27 -9 60 -9 57 0 60 1 60 24 0 14 -4 28 -10 31 -5 3 -10 40 -10 81 0
91 -10 104 -77 104 -37 0 -52 5 -63 20 -8 11 -19 20 -25 20 -16 0 -132 116
-140 140 -3 11 -11 20 -16 20 -5 0 -9 6 -9 13 0 8 -20 32 -44 55 -35 33 -48
55 -67 116 -13 42 -27 76 -31 76 -5 0 -8 16 -8 35 0 19 -4 35 -10 35 -5 0 -10
9 -10 20 0 11 -4 20 -8 20 -4 0 -16 14 -26 32 -11 17 -32 45 -48 61 -15 17
-28 34 -28 39 0 12 -63 67 -77 68 -7 0 -13 5 -13 10 0 6 -9 10 -20 10 -11 0
-20 5 -20 10 0 6 -11 10 -24 10 -14 0 -28 5 -31 10 -8 13 -95 13 -95 0 0 -5
-11 -10 -25 -10 -14 0 -25 -4 -25 -10 0 -5 -9 -10 -20 -10 -11 0 -20 5 -20 10
0 6 -4 10 -10 10 -10 0 -37 20 -72 52 -10 10 -21 18 -25 18 -5 0 -20 10 -35
23 -15 13 -39 32 -54 43 -14 10 -50 38 -80 62 -29 23 -55 42 -59 42 -3 0 -18
11 -33 25 -15 14 -31 25 -35 25 -5 0 -22 14 -37 30 -15 17 -35 30 -44 30 -9 0
-16 5 -16 10 0 6 -6 10 -14 10 -8 0 -27 12 -44 28 -17 15 -51 44 -76 65 -25
21 -46 43 -46 49 0 5 -7 16 -15 24 -23 23 -29 63 -14 90 10 20 10 32 1 58 -15
42 -15 108 0 141 9 21 9 28 0 34 -10 6 -10 36 -2 132 6 68 15 126 21 127 5 2
9 16 9 32 0 16 5 30 11 32 8 3 8 11 -2 27 -11 19 -11 25 -1 28 7 3 12 22 12
48 0 24 5 47 10 50 5 3 10 28 10 54 0 43 11 78 41 133 12 24 12 251 -1 264 -5
5 -13 52 -16 102 -4 51 -11 95 -16 98 -4 3 -8 18 -8 34 0 16 -4 31 -8 34 -4 2
-9 28 -10 58 -1 29 -7 55 -12 56 -6 2 -10 12 -10 23 0 10 -4 19 -10 19 -5 0
-10 9 -10 19 0 11 -4 23 -10 26 -5 3 -10 17 -10 29 0 13 -7 40 -15 59 -8 20
-15 48 -15 62 0 14 -4 25 -10 25 -5 0 -10 9 -10 19 0 11 -4 23 -10 26 -5 3
-10 15 -10 26 0 10 -4 19 -10 19 -5 0 -10 13 -10 29 0 16 -7 34 -15 41 -8 7
-15 19 -15 26 0 7 -9 29 -20 49 -11 20 -20 42 -20 50 0 8 -4 15 -10 15 -5 0
-10 6 -10 14 0 8 -13 40 -30 71 -16 31 -30 64 -30 72 0 8 -7 21 -15 29 -8 9
-15 24 -15 35 0 11 -9 29 -20 41 -11 12 -20 30 -20 40 0 10 -4 18 -10 18 -5 0
-10 7 -10 15 0 18 -52 129 -62 133 -5 2 -8 12 -8 23 0 10 -4 19 -10 19 -5 0
-10 8 -10 18 0 22 -22 72 -32 72 -5 0 -8 9 -8 20 0 11 -4 20 -9 20 -5 0 -12
13 -16 30 -4 16 -11 32 -16 35 -5 4 -9 14 -9 24 0 9 -13 38 -30 64 -16 26 -30
57 -30 67 0 11 -4 20 -10 20 -5 0 -10 8 -10 18 0 10 -11 41 -25 68 -14 27 -25
57 -25 67 0 9 -4 17 -10 17 -5 0 -10 8 -10 18 0 9 -16 36 -36 60 -30 35 -43
42 -72 42 -19 0 -44 -7 -54 -17 -17 -15 -19 -15 -36 0 -21 19 -68 22 -94 6z
m188 -183 c8 -8 14 -24 14 -35 0 -12 5 -21 10 -21 6 0 10 -7 10 -16 0 -9 9
-23 21 -33 11 -9 24 -32 28 -51 4 -22 15 -39 28 -44 14 -7 23 -23 28 -50 3
-22 12 -47 19 -56 7 -8 19 -35 26 -60 7 -25 17 -49 22 -54 4 -6 8 -17 8 -26 0
-9 9 -25 20 -35 11 -10 20 -26 20 -36 0 -10 5 -21 10 -24 6 -3 10 -17 10 -29
0 -13 7 -29 15 -36 8 -7 15 -21 15 -31 0 -22 40 -112 52 -117 4 -2 8 -12 8
-23 0 -10 5 -19 10 -19 6 0 10 -11 10 -25 0 -25 30 -98 43 -103 4 -2 7 -15 7
-28 0 -13 5 -24 10 -24 6 0 10 -9 10 -20 0 -11 5 -20 10 -20 6 0 10 -13 10
-28 0 -16 6 -42 14 -58 18 -35 38 -85 41 -99 6 -27 18 -55 25 -55 4 0 10 -11
12 -25 8 -38 -16 -30 -31 10 -7 19 -17 35 -23 35 -5 0 -8 6 -5 14 3 8 -1 20
-8 26 -17 14 -45 68 -45 86 0 7 -4 14 -8 16 -5 2 -21 29 -35 60 -15 31 -32 60
-37 63 -6 3 -10 15 -10 26 0 10 -4 19 -10 19 -5 0 -10 10 -11 23 0 12 -9 36
-20 52 -10 17 -35 64 -56 105 -20 41 -41 77 -45 78 -4 2 -8 12 -8 22 0 9 -6
23 -13 29 -8 6 -20 30 -27 53 -8 24 -17 45 -20 48 -3 3 -12 20 -19 38 -8 17
-17 32 -22 32 -5 0 -9 6 -9 13 0 12 -71 77 -84 77 -3 0 -6 -6 -6 -14 0 -15
-24 -28 -34 -19 -8 8 -8 403 0 403 3 0 12 -6 20 -14z m-116 -191 c0 -173 -1
-185 -20 -195 -11 -6 -30 -8 -42 -5 -13 3 -28 2 -33 -2 -16 -12 -65 -117 -65
-139 0 -11 -9 -37 -20 -59 -11 -22 -20 -47 -20 -57 0 -10 -4 -18 -10 -18 -5 0
-10 -9 -10 -20 0 -11 -4 -20 -10 -20 -5 0 -10 -13 -10 -30 0 -16 -4 -30 -10
-30 -5 0 -10 -13 -10 -29 0 -16 -6 -33 -13 -39 -7 -6 -19 -34 -27 -62 -7 -27
-17 -50 -22 -50 -4 0 -8 -11 -8 -25 0 -14 -4 -25 -10 -25 -5 0 -10 -18 -10
-40 0 -22 -4 -40 -8 -40 -5 0 -10 -20 -10 -45 -1 -25 -6 -53 -11 -63 -28 -53
-44 -123 -45 -196 -1 -78 0 -81 23 -84 12 -2 34 -1 47 2 22 6 24 12 24 61 0
30 4 55 9 55 5 0 12 13 16 30 4 16 11 32 16 35 5 4 9 28 9 55 0 27 5 52 10 55
6 3 10 24 10 46 0 21 5 39 10 39 6 0 10 24 10 54 0 33 5 56 12 58 6 2 11 18
11 36 0 18 3 32 7 32 19 0 80 161 80 212 0 32 5 46 20 56 11 6 17 18 14 26 -3
8 6 26 21 40 31 31 27 30 53 7 l22 -18 0 -1352 c0 -894 -3 -1351 -10 -1351 -5
0 -10 -14 -10 -32 0 -17 -14 -56 -30 -85 -17 -30 -28 -58 -24 -64 3 -6 -4 -18
-15 -28 -12 -10 -21 -26 -21 -35 0 -25 -17 -52 -56 -94 -19 -20 -34 -42 -34
-49 0 -7 -9 -13 -20 -13 -13 0 -20 -7 -20 -20 0 -11 -4 -20 -10 -20 -5 0 -10
-8 -10 -19 0 -10 -21 -41 -47 -69 -93 -98 -123 -132 -123 -142 0 -6 -5 -10
-11 -10 -11 0 -39 -24 -39 -34 0 -7 -49 -56 -56 -56 -9 0 -204 -200 -204 -209
0 -4 -11 -13 -24 -21 -13 -7 -26 -20 -29 -29 -4 -15 -97 -71 -117 -71 -5 0
-20 11 -34 25 -14 14 -37 25 -51 25 -31 0 -64 16 -86 42 -9 10 -24 18 -33 18
-28 0 -60 19 -111 67 -13 13 -29 23 -35 23 -5 0 -10 6 -10 13 0 6 -12 26 -26
42 -26 30 -64 97 -64 112 0 5 23 31 51 58 27 28 55 56 62 63 62 68 77 82 91
82 10 0 16 9 16 25 0 14 8 29 20 35 24 13 180 167 180 178 0 4 12 16 27 27 29
22 30 23 88 95 22 27 50 52 63 56 12 3 22 12 22 20 0 7 34 47 75 89 68 67 94
115 65 115 -5 0 -10 8 -10 18 0 10 -4 22 -9 28 -5 5 -11 32 -14 59 -9 107 -29
230 -38 239 -5 6 -9 22 -9 37 0 15 -5 29 -10 31 -6 2 -11 38 -11 81 -1 42 -5
77 -10 77 -5 0 -9 14 -9 30 0 17 -4 30 -10 30 -5 0 -10 22 -10 50 0 27 -6 69
-14 92 -7 24 -14 52 -14 63 -1 11 -6 47 -11 80 -13 82 -13 341 0 390 5 22 11
47 13 55 12 73 30 140 37 140 5 0 9 11 9 24 0 14 5 28 11 32 6 3 8 15 6 25 -3
12 4 31 19 48 13 16 24 34 24 41 0 7 7 26 16 43 32 61 34 67 34 96 0 21 6 32
20 36 16 5 20 15 20 46 0 29 7 47 25 67 14 15 30 43 36 62 6 19 15 39 20 45 5
5 9 19 9 31 0 13 5 26 10 29 6 3 10 22 10 41 0 23 5 34 15 34 8 0 19 18 27 43
6 23 14 44 18 47 14 13 30 52 30 75 0 14 9 35 20 47 11 12 20 29 20 39 0 9 7
22 15 29 9 7 15 29 15 52 0 45 21 91 56 122 16 14 25 33 27 56 1 19 4 37 7 40
10 10 40 81 40 95 0 8 5 15 10 15 6 0 10 8 10 18 0 10 8 27 19 38 10 12 22 36
25 55 11 52 39 143 46 149 4 3 12 15 19 28 6 12 18 22 26 22 13 0 15 -29 15
-185z m191 -403 c14 -20 43 -73 64 -117 21 -44 47 -92 57 -107 10 -14 18 -36
18 -47 0 -12 5 -21 10 -21 6 0 10 -9 10 -20 0 -11 5 -20 10 -20 6 0 10 -4 10
-10 0 -9 39 -72 60 -97 5 -7 10 -20 10 -30 0 -10 9 -25 20 -33 11 -8 20 -25
20 -38 0 -12 11 -35 25 -50 14 -15 25 -37 25 -49 0 -13 5 -23 10 -23 6 0 10
-7 10 -16 0 -9 8 -24 19 -33 10 -9 21 -26 25 -38 4 -13 13 -29 20 -36 24 -24
66 -108 66 -132 0 -14 5 -25 10 -25 6 0 10 -7 10 -16 0 -9 13 -35 29 -59 16
-24 32 -61 36 -84 4 -23 11 -41 16 -41 5 0 9 -16 9 -35 0 -19 5 -35 10 -35 6
0 10 -32 10 -75 0 -43 4 -75 10 -75 6 0 10 -9 10 -20 0 -11 -4 -20 -10 -20
-14 0 -12 -54 2 -68 9 -9 10 -15 2 -20 -7 -4 -14 -54 -18 -122 -9 -163 -16
-230 -27 -230 -5 0 -9 -30 -10 -67 0 -38 -4 -99 -10 -138 -23 -163 -29 -278
-20 -377 11 -119 19 -159 35 -173 22 -20 36 -55 36 -90 0 -19 5 -35 10 -35 6
0 10 -9 10 -20 0 -11 6 -20 13 -20 7 0 21 -11 31 -25 10 -14 24 -25 30 -25 6
0 18 -9 26 -20 8 -11 18 -20 23 -20 4 0 17 -9 29 -20 12 -11 32 -20 45 -20 13
0 23 -4 23 -8 0 -5 12 -15 28 -23 27 -14 186 -120 209 -139 7 -5 19 -10 28
-10 9 0 19 -8 22 -17 8 -20 28 -43 38 -43 4 0 29 -16 55 -35 26 -19 54 -35 62
-35 7 0 20 -9 28 -20 8 -11 22 -20 30 -20 18 0 50 -59 50 -90 0 -11 -4 -20
-10 -20 -5 0 -10 -12 -10 -27 0 -16 -7 -37 -15 -47 -8 -11 -15 -31 -15 -46 0
-14 -9 -32 -20 -40 -11 -8 -20 -18 -20 -23 0 -10 -26 -37 -36 -37 -12 0 -52
-48 -56 -67 -2 -10 -12 -19 -23 -21 -11 -2 -29 -12 -40 -21 -11 -9 -33 -23
-50 -31 -16 -8 -38 -23 -48 -34 -9 -11 -20 -17 -23 -13 -3 3 -21 -3 -40 -14
-19 -10 -43 -19 -54 -19 -11 0 -20 -3 -20 -8 0 -4 -10 -12 -22 -17 -19 -8 -27
-6 -45 12 -13 12 -43 36 -68 53 -25 17 -45 35 -45 40 0 6 -8 10 -19 10 -10 0
-21 9 -24 20 -3 11 -13 20 -22 20 -17 0 -33 14 -70 64 -11 14 -25 26 -32 26
-6 0 -22 15 -35 33 -20 28 -90 103 -257 274 -23 23 -41 46 -41 50 0 4 -14 16
-30 25 -17 10 -30 25 -30 37 0 11 -7 26 -15 35 -8 8 -15 22 -15 30 0 9 -4 16
-10 16 -5 0 -10 5 -10 10 0 6 -9 20 -20 32 -11 12 -20 28 -20 35 0 7 -4 13 -8
13 -5 0 -17 20 -28 45 -10 25 -22 45 -26 45 -4 0 -8 11 -8 25 0 14 -3 25 -7
25 -5 0 -16 19 -27 43 -10 23 -24 54 -32 68 -7 14 -13 34 -13 45 -1 34 -13 84
-21 84 -4 0 -11 17 -15 38 -10 45 -18 2322 -9 2322 11 0 33 -34 34 -50 0 -18
52 -124 63 -128 4 -2 7 -19 7 -38 0 -19 5 -34 10 -34 6 0 10 -13 10 -30 0 -16
4 -30 9 -30 5 0 14 -29 21 -65 7 -36 16 -68 21 -71 5 -3 9 -23 9 -44 0 -21 7
-45 15 -54 9 -9 15 -33 15 -61 0 -54 16 -75 58 -75 21 0 32 7 40 24 12 26 6
168 -8 201 -5 11 -14 45 -20 76 -6 31 -20 66 -30 77 -11 12 -20 28 -20 37 0 8
-4 15 -9 15 -10 0 -23 31 -27 65 -3 29 -29 94 -42 107 -7 7 -12 20 -12 30 0
10 -4 18 -10 18 -5 0 -10 13 -10 29 0 17 -4 33 -10 36 -5 3 -10 15 -10 26 0
10 -4 19 -10 19 -5 0 -10 9 -10 21 0 11 -7 27 -15 35 -8 9 -15 24 -15 34 0 10
-4 22 -10 25 -11 7 -13 45 -4 69 10 25 27 18 55 -22z"/>
<path d="M783 775 c-31 -33 -33 -38 -33 -110 0 -41 4 -83 9 -93 5 -9 26 -52
47 -94 21 -43 41 -78 46 -78 4 0 8 -4 8 -10 0 -14 63 -80 77 -80 6 0 18 -6 25
-14 23 -23 100 -56 130 -56 15 0 28 -4 28 -10 0 -15 60 -12 76 4 8 8 14 28 14
44 0 25 -7 31 -52 52 -29 13 -59 30 -66 37 -7 7 -16 13 -20 13 -4 0 -21 14
-39 30 -18 17 -36 30 -42 30 -6 0 -17 15 -26 33 -8 18 -26 44 -40 59 -14 15
-25 36 -25 47 0 11 -4 23 -10 26 -5 3 -10 19 -10 35 0 16 -4 32 -10 35 -5 3
-10 24 -10 46 0 21 -5 39 -11 39 -5 0 -8 4 -5 9 8 13 -4 41 -18 40 -6 0 -26
-16 -43 -34z"/>
<path d="M1545 178 c-33 -5 -69 -11 -80 -12 -37 -6 -55 -18 -55 -36 0 -20 63
-80 85 -80 25 0 85 33 85 47 0 7 6 13 14 13 15 0 56 50 56 69 0 12 -20 12
-105 -1z"/>
</g>
</svg>
