<?xml version="1.0" standalone="no"?>
<!DOCTYPE svg PUBLIC "-//W3C//DTD SVG 20010904//EN"
 "http://www.w3.org/TR/2001/REC-SVG-20010904/DTD/svg10.dtd">
<svg version="1.0" xmlns="http://www.w3.org/2000/svg"
 width="256.000000pt" height="256.000000pt" viewBox="0 0 256.000000 256.000000"
 preserveAspectRatio="xMidYMid meet">

<g transform="translate(0.000000,256.000000) scale(0.100000,-0.100000)"
fill="#000000" stroke="none">
<path d="M1214 2502 c-45 -33 -99 -92 -127 -139 -14 -25 -39 -43 -94 -68 -494
-228 -616 -870 -242 -1270 l47 -50 4 -105 c4 -84 10 -119 32 -172 21 -51 25
-76 20 -103 -7 -38 -19 -46 -80 -58 l-31 -6 -40 152 c-46 178 -51 184 -136
161 -75 -20 -87 -18 -87 11 0 16 16 40 51 72 28 26 55 55 60 65 7 12 -1 59
-26 157 -19 76 -40 152 -46 167 -20 55 -54 58 -108 9 -44 -40 -51 -42 -51 -16
0 28 -9 31 -63 18 -46 -10 -48 -12 -41 -40 5 -26 4 -29 -12 -23 -10 4 -36 9
-59 12 -32 5 -44 2 -59 -15 -19 -21 -18 -23 22 -182 23 -89 48 -169 57 -179 8
-9 48 -24 89 -34 58 -13 77 -22 82 -38 3 -11 2 -23 -3 -27 -4 -4 -57 -20 -116
-36 -76 -20 -111 -33 -118 -47 -7 -14 -1 -53 26 -153 19 -74 35 -137 35 -139
0 -2 -20 -16 -43 -30 -48 -27 -90 -77 -113 -131 -18 -43 -19 -206 -2 -223 9
-9 298 -12 1239 -12 1067 0 1228 2 1239 15 19 23 9 191 -15 240 -27 55 -88
111 -143 131 -26 10 -48 19 -50 20 -2 1 4 49 12 107 20 130 20 340 1 472 -17
124 -40 219 -106 455 l-53 185 0 180 c-1 162 1 188 22 255 54 173 141 265 205
216 25 -19 21 -78 -9 -138 l-26 -52 33 -28 c19 -15 40 -28 46 -28 22 0 75 119
80 180 9 94 -32 154 -121 179 -127 35 -255 -96 -318 -326 -18 -64 -21 -107
-22 -243 0 -181 5 -215 94 -530 61 -217 82 -349 83 -525 1 -164 -17 -323 -38
-331 -7 -3 -106 14 -219 37 -198 41 -207 44 -213 68 -11 45 -6 84 21 156 22
60 26 86 26 183 l0 114 45 51 c52 60 126 204 150 292 26 95 31 266 11 364 -50
245 -201 444 -419 551 -86 42 -104 55 -132 98 -62 91 -136 152 -186 152 -14 0
-44 -13 -65 -28z m118 -130 c51 -54 71 -87 65 -105 -2 -8 -39 -12 -116 -13
-124 -1 -135 4 -105 53 20 32 95 113 105 113 3 0 27 -22 51 -48z m-292 -180
c-45 -30 -132 -116 -147 -145 -13 -25 -13 -31 1 -52 8 -13 36 -38 61 -56 l46
-33 -28 -20 c-64 -44 -169 -163 -200 -227 -51 -102 -66 -176 -61 -300 2 -59 0
-102 -4 -96 -4 7 -20 48 -35 92 -25 73 -28 93 -28 220 0 127 3 147 28 222 59
171 175 306 334 388 55 28 69 31 33 7z m568 -38 c124 -78 228 -210 277 -351
30 -86 44 -241 30 -330 l-8 -48 -14 70 c-30 151 -133 306 -256 386 l-57 37 40
32 c55 44 64 63 46 97 -19 36 -81 99 -128 131 -21 13 -38 26 -38 28 0 8 55
-18 108 -52z m-215 -24 c43 -13 79 -33 108 -59 l44 -40 -35 -29 -35 -30 -130
5 c-94 3 -144 1 -182 -10 l-52 -14 -43 34 c-24 19 -44 38 -46 43 -6 17 85 81
143 100 78 25 148 25 228 0z m71 -280 c167 -57 285 -194 322 -373 18 -84 10
-207 -10 -173 -53 90 -125 150 -219 184 -52 19 -375 26 -457 10 -105 -20 -187
-74 -242 -160 l-33 -51 -9 43 c-14 64 7 187 45 268 62 129 206 243 344 271 70
14 189 6 259 -19z m104 -484 c53 -30 85 -64 116 -124 15 -29 17 -61 14 -255
-3 -220 -3 -222 -30 -274 -38 -72 -90 -120 -166 -156 -56 -26 -80 -31 -166
-35 -171 -8 -296 41 -366 142 -55 81 -60 108 -60 340 l0 211 30 52 c32 55 82
96 147 118 27 10 93 13 233 11 195 -1 195 -1 248 -30z m-1103 -255 c15 -66 16
-83 5 -96 -7 -8 -16 -15 -20 -15 -4 0 -18 36 -30 81 -20 76 -21 82 -4 100 9
10 20 17 24 14 3 -2 15 -40 25 -84z m-179 31 c6 -4 20 -44 31 -89 19 -75 19
-83 4 -83 -29 0 -39 14 -56 80 -9 36 -18 73 -21 83 -6 18 20 24 42 9z m319
-512 c15 -61 25 -113 22 -117 -14 -13 -319 -69 -323 -59 -2 6 -15 53 -28 104
-18 68 -22 94 -13 97 7 3 80 22 162 44 83 22 151 40 151 40 1 1 14 -49 29
-109z m397 -139 c97 -66 262 -95 408 -72 74 12 199 61 221 87 23 27 32 15 26
-35 -12 -101 -74 -183 -177 -235 -182 -91 -404 -31 -493 133 -25 45 -49 151
-34 151 3 0 25 -13 49 -29z m-139 -105 c29 -92 104 -181 203 -243 15 -9 -84
-12 -456 -10 l-475 2 2 43 c2 53 32 103 75 126 29 16 562 133 614 135 16 1 24
-10 37 -53z m1103 8 c100 -20 188 -40 195 -45 11 -6 7 -28 -20 -109 -18 -56
-38 -103 -44 -106 -7 -2 -138 -3 -291 -2 l-278 3 58 40 c71 48 127 120 156
198 11 31 26 57 32 57 6 0 93 -16 192 -36z m370 -85 c52 -25 84 -73 87 -131
l2 -43 -104 -3 c-89 -2 -103 -1 -98 13 4 8 18 53 33 100 14 47 29 85 32 85 3
0 25 -9 48 -21z"/>
<path d="M1250 1230 l0 -110 55 0 55 0 0 110 0 110 -55 0 -55 0 0 -110z"/>
<path d="M1010 1055 l0 -55 90 0 90 0 0 55 0 55 -90 0 -90 0 0 -55z"/>
<path d="M1420 1055 l0 -55 91 0 90 0 -3 53 -3 52 -87 3 -88 3 0 -56z"/>
<path d="M1150 735 l0 -55 155 0 155 0 0 55 0 55 -155 0 -155 0 0 -55z"/>
</g>
</svg>
