<?xml version="1.0" standalone="no"?>
<!DOCTYPE svg PUBLIC "-//W3C//DTD SVG 20010904//EN"
 "http://www.w3.org/TR/2001/REC-SVG-20010904/DTD/svg10.dtd">
<svg version="1.0" xmlns="http://www.w3.org/2000/svg"
 width="522.000000pt" height="520.000000pt" viewBox="0 0 522.000000 520.000000"
 preserveAspectRatio="xMidYMid meet">

<g transform="translate(0.000000,520.000000) scale(0.100000,-0.100000)"
fill="#000000" stroke="none">
<path d="M5067 5174 c-26 -8 -97 -49 -158 -90 -123 -84 -205 -124 -324 -159
-198 -57 -372 -67 -1135 -66 -689 1 -762 -3 -882 -49 -165 -62 -295 -228 -361
-460 -27 -92 -27 -92 -47 -775 -5 -181 -13 -376 -16 -433 l-6 -102 -516 2
-517 3 -7 225 c-13 475 -30 799 -45 890 -70 432 -427 830 -871 971 l-73 23
-30 -31 c-31 -30 -31 -31 -20 -85 7 -32 33 -90 62 -139 85 -145 146 -295 194
-479 19 -73 34 -304 43 -640 8 -295 3 -479 -18 -712 -20 -224 6 -435 70 -573
48 -102 198 -226 351 -290 91 -39 190 -46 1073 -75 176 -6 322 -13 325 -15 3
-2 3 -65 -1 -142 -3 -76 -9 -299 -14 -495 l-7 -358 -221 0 c-349 0 -790 -32
-971 -69 -262 -55 -462 -165 -641 -353 -225 -235 -332 -485 -264 -617 10 -21
26 -41 35 -45 48 -18 122 3 215 62 70 45 140 76 265 119 186 64 281 84 380 81
50 -1 153 3 231 9 141 12 361 7 714 -17 305 -20 581 -10 725 26 141 36 252
119 296 221 49 116 91 629 106 1295 l6 308 46 0 c25 0 226 -7 446 -15 220 -8
427 -15 461 -15 33 0 68 -6 77 -12 9 -7 24 -40 34 -73 15 -53 17 -110 18 -465
1 -448 6 -495 74 -698 105 -314 359 -613 645 -758 61 -31 126 -68 144 -81 38
-28 86 -26 140 7 50 31 37 98 -41 205 -82 113 -133 234 -193 451 l-26 97 10
561 c13 736 2 944 -59 1143 -72 233 -228 383 -464 444 -102 26 -348 38 -816
39 -190 0 -379 3 -420 6 l-74 7 3 441 c2 242 6 477 10 521 l7 80 150 7 c370
17 713 43 948 74 295 38 522 146 717 343 130 132 232 286 319 484 31 70 36 93
36 159 0 42 -2 79 -5 82 -14 14 -89 14 -133 0z"/>
<path d="M1560 3841 c-75 -24 -147 -90 -178 -160 -23 -53 -20 -156 5 -211 65
-142 230 -200 371 -129 199 99 198 379 -2 481 -44 23 -153 33 -196 19z"/>
<path d="M3497 3819 c-96 -15 -180 -87 -211 -181 -33 -103 -10 -197 68 -274
78 -79 171 -101 275 -67 187 60 246 307 107 446 -65 65 -143 90 -239 76z"/>
<path d="M1532 1875 c-144 -63 -209 -236 -139 -371 46 -91 146 -154 242 -154
153 0 291 151 271 297 -20 149 -126 243 -270 243 -39 -1 -86 -7 -104 -15z"/>
<path d="M3456 1854 c-70 -22 -149 -103 -170 -174 -20 -67 -20 -103 -1 -167
46 -153 231 -231 378 -159 95 46 149 135 149 243 -1 105 -54 193 -143 239 -63
31 -148 39 -213 18z"/>
</g>
</svg>
