<?xml version="1.0" standalone="no"?>
<!DOCTYPE svg PUBLIC "-//W3C//DTD SVG 20010904//EN"
 "http://www.w3.org/TR/2001/REC-SVG-20010904/DTD/svg10.dtd">
<svg version="1.0" xmlns="http://www.w3.org/2000/svg"
 width="197.000000pt" height="251.000000pt" viewBox="0 0 197.000000 251.000000"
 preserveAspectRatio="xMidYMid meet">

<g transform="translate(0.000000,251.000000) scale(0.100000,-0.100000)"
fill="#000000" stroke="none">
<path d="M943 2473 c15 -2 39 -2 55 0 15 2 2 4 -28 4 -30 0 -43 -2 -27 -4z"/>
<path d="M1034 2473 c11 -11 97 -42 91 -33 -3 4 -26 15 -52 24 -25 9 -43 13
-39 9z"/>
<path d="M860 2460 c-18 -12 -2 -12 25 0 13 6 15 9 5 9 -8 0 -22 -4 -30 -9z"/>
<path d="M805 2438 c-51 -28 -135 -128 -135 -160 0 -7 13 10 29 37 32 55 70
94 116 118 17 9 26 16 20 16 -5 0 -19 -5 -30 -11z"/>
<path d="M1155 2410 c10 -11 20 -20 23 -20 3 0 -3 9 -13 20 -10 11 -20 20 -23
20 -3 0 3 -9 13 -20z"/>
<path d="M1216 2327 c3 -10 9 -15 12 -12 3 3 0 11 -7 18 -10 9 -11 8 -5 -6z"/>
<path d="M653 2175 c0 -33 2 -45 4 -27 2 18 2 45 0 60 -2 15 -4 0 -4 -33z"/>
<path d="M1253 2185 c0 -27 2 -38 4 -22 2 15 2 37 0 50 -2 12 -4 0 -4 -28z"/>
<path d="M920 2135 c0 -14 2 -25 4 -25 2 0 6 11 8 25 3 14 1 25 -3 25 -5 0 -9
-11 -9 -25z"/>
<path d="M973 2090 c0 -25 2 -35 4 -22 2 12 2 32 0 45 -2 12 -4 2 -4 -23z"/>
<path d="M993 2085 c0 -22 2 -30 4 -17 2 12 2 30 0 40 -3 9 -5 -1 -4 -23z"/>
<path d="M1242 2095 c0 -16 2 -22 5 -12 2 9 2 23 0 30 -3 6 -5 -1 -5 -18z"/>
<path d="M661 2074 c0 -11 3 -14 6 -6 3 7 2 16 -1 19 -3 4 -6 -2 -5 -13z"/>
<path d="M1264 2068 c-5 -7 -3 -8 5 -4 7 5 21 0 32 -10 23 -20 26 -12 3 10
-18 19 -30 20 -40 4z"/>
<path d="M1235 2050 c-3 -5 -1 -10 4 -10 6 0 11 5 11 10 0 6 -2 10 -4 10 -3 0
-8 -4 -11 -10z"/>
<path d="M921 2034 c0 -11 3 -14 6 -6 3 7 2 16 -1 19 -3 4 -6 -2 -5 -13z"/>
<path d="M602 2020 c0 -14 2 -19 5 -12 2 6 2 18 0 25 -3 6 -5 1 -5 -13z"/>
<path d="M656 2025 c4 -8 8 -15 10 -15 2 0 4 7 4 15 0 8 -4 15 -10 15 -5 0 -7
-7 -4 -15z"/>
<path d="M1070 2027 c-14 -7 -26 -21 -29 -32 -3 -18 -2 -18 23 -2 14 9 42 17
63 17 36 1 37 2 19 15 -24 18 -43 19 -76 2z"/>
<path d="M764 2015 c-18 -13 -16 -14 21 -15 22 0 50 -3 63 -6 34 -10 26 13 -9
25 -42 14 -51 14 -75 -4z"/>
<path d="M976 2013 c-6 -14 -5 -15 5 -6 7 7 10 15 7 18 -3 3 -9 -2 -12 -12z"/>
<path d="M1256 2013 c-6 -14 -5 -15 5 -6 7 7 10 15 7 18 -3 3 -9 -2 -12 -12z"/>
<path d="M620 1988 c-5 -13 -9 -17 -9 -9 -1 8 -4 12 -7 8 -16 -16 77 -164 96
-152 5 3 14 -3 20 -12 9 -15 10 -14 4 7 -9 33 -13 37 -23 21 -15 -24 -71 64
-71 112 0 36 1 38 18 26 15 -13 16 -12 3 4 -17 22 -20 22 -31 -5z"/>
<path d="M1301 1994 c0 -11 3 -14 6 -6 3 7 2 16 -1 19 -3 4 -6 -2 -5 -13z"/>
<path d="M1242 1965 c0 -16 2 -22 5 -12 2 9 2 23 0 30 -3 6 -5 -1 -5 -18z"/>
<path d="M662 1945 c0 -16 2 -22 5 -12 2 9 2 23 0 30 -3 6 -5 -1 -5 -18z"/>
<path d="M798 1963 c6 -2 18 -2 25 0 6 3 1 5 -13 5 -14 0 -19 -2 -12 -5z"/>
<path d="M1286 1955 c-9 -26 -7 -32 5 -12 6 10 9 21 6 23 -2 3 -7 -2 -11 -11z"/>
<path d="M921 1945 c1 -19 18 -51 18 -35 0 8 -4 22 -9 30 -5 8 -9 11 -9 5z"/>
<path d="M1102 1929 c-13 -5 -35 -6 -48 -3 -26 7 -34 -10 -8 -20 29 -11 62 -6
85 14 26 21 12 26 -29 9z"/>
<path d="M768 1917 c31 -38 92 -39 122 -1 14 16 13 17 -15 9 -36 -9 -40 -9
-85 1 -31 7 -34 6 -22 -9z"/>
<path d="M1250 1886 c-6 -8 -17 -13 -24 -10 -7 3 -22 -20 -38 -61 -31 -79 -26
-86 7 -11 14 31 32 57 44 61 10 3 22 12 25 20 7 19 2 19 -14 1z"/>
<path d="M901 1814 c-1 -7 18 -22 42 -33 40 -21 41 -21 18 -1 -13 11 -29 20
-36 20 -7 0 -16 6 -18 13 -4 8 -6 8 -6 1z"/>
<path d="M1032 1804 c-7 -8 -8 -14 -3 -14 10 0 25 19 20 25 -2 1 -10 -3 -17
-11z"/>
<path d="M740 1780 c6 -11 13 -20 16 -20 2 0 0 9 -6 20 -6 11 -13 20 -16 20
-2 0 0 -9 6 -20z"/>
<path d="M772 1728 c6 -12 34 -38 62 -57 28 -18 47 -29 41 -24 -76 73 -113
102 -103 81z"/>
<path d="M905 1741 c-17 -7 -15 -11 21 -35 27 -17 47 -24 60 -20 23 8 64 44
64 56 0 10 -118 9 -145 -1z"/>
<path d="M1110 1692 c-43 -44 -43 -45 -8 -19 25 18 38 23 41 14 2 -6 6 3 9 21
2 17 4 32 4 31 -1 0 -21 -22 -46 -47z"/>
<path d="M1170 1648 c12 -10 26 -16 30 -13 5 3 11 -3 14 -12 4 -14 4 -13 2 2
-1 11 -8 19 -14 18 -7 -2 -12 3 -12 10 0 7 -9 13 -21 13 -21 0 -21 0 1 -18z"/>
<path d="M1030 1625 c-31 -33 -84 -34 -119 -3 -23 20 -23 19 2 -8 l28 -32 -41
-79 c-29 -54 -43 -96 -46 -129 l-3 -49 9 49 c8 44 68 176 91 200 5 6 11 3 14
-7 4 -9 -4 -32 -19 -54 -14 -21 -26 -42 -26 -48 0 -5 14 10 30 35 21 32 30 39
30 25 -1 -11 -7 -31 -15 -45 -8 -14 -14 -32 -14 -40 0 -8 7 1 16 20 8 19 17
29 20 23 3 -7 10 -13 18 -13 7 0 15 -14 19 -32 3 -17 8 -29 11 -27 10 10 -17
79 -30 79 -8 0 -15 8 -15 18 0 28 11 34 27 14 13 -15 13 -14 3 6 -7 14 -17 21
-26 18 -9 -3 -14 1 -14 14 0 11 6 20 13 20 18 0 40 -26 66 -77 12 -24 24 -43
26 -43 7 0 -39 89 -59 115 -13 18 -12 22 12 48 14 15 23 27 21 27 -3 0 -16
-11 -29 -25z"/>
<path d="M1242 1610 c0 -25 3 -35 5 -22 6 28 23 28 96 -2 31 -13 57 -22 57
-20 0 8 -104 54 -121 54 -10 0 -23 8 -28 18 -8 13 -10 7 -9 -28z"/>
<path d="M660 1620 c-8 -5 -10 -10 -5 -10 6 0 17 5 25 10 8 5 11 10 5 10 -5 0
-17 -5 -25 -10z"/>
<path d="M601 1599 c-13 -5 -52 -30 -87 -54 -72 -52 -91 -85 -128 -222 -13
-50 -27 -101 -31 -112 -3 -12 -2 -21 2 -21 5 0 16 30 23 68 9 40 16 58 18 44
7 -44 48 -37 74 12 9 17 8 19 -3 9 -20 -19 -39 -16 -39 7 0 11 -4 20 -10 20
-17 0 -11 -28 10 -43 20 -14 17 -27 -5 -27 -23 0 -25 58 -5 123 23 75 66 121
160 172 62 33 72 44 21 24z"/>
<path d="M1444 1524 c21 -21 49 -61 62 -89 13 -27 24 -44 24 -37 0 33 -61 124
-99 149 -18 10 -13 3 13 -23z"/>
<path d="M1221 1514 c0 -11 3 -14 6 -6 3 7 2 16 -1 19 -3 4 -6 -2 -5 -13z"/>
<path d="M1030 1494 c0 -6 7 -19 15 -30 8 -10 14 -14 14 -9 0 6 -6 19 -14 29
-8 11 -15 15 -15 10z"/>
<path d="M1181 1474 c0 -11 3 -14 6 -6 3 7 2 16 -1 19 -3 4 -6 -2 -5 -13z"/>
<path d="M990 1434 c-12 -32 -13 -74 -1 -74 5 0 11 23 13 50 1 28 2 50 0 50
-1 0 -7 -12 -12 -26z"/>
<path d="M912 1430 c0 -14 2 -19 5 -12 2 6 2 18 0 25 -3 6 -5 1 -5 -13z"/>
<path d="M1096 1435 c4 -11 10 -66 15 -123 5 -56 15 -115 24 -131 15 -30 76
-65 130 -75 17 -4 5 3 -26 14 -73 27 -101 53 -94 88 5 23 4 24 -5 7 -8 -16 -9
-10 -6 27 2 26 0 45 -5 42 -5 -3 -9 21 -9 53 -1 32 -8 72 -16 88 -8 17 -11 21
-8 10z"/>
<path d="M1067 1408 c8 -44 13 -48 13 -10 0 17 -4 34 -10 37 -6 4 -7 -6 -3
-27z"/>
<path d="M942 1395 c0 -16 2 -22 5 -12 2 9 2 23 0 30 -3 6 -5 -1 -5 -18z"/>
<path d="M1191 1404 c0 -11 3 -14 6 -6 3 7 2 16 -1 19 -3 4 -6 -2 -5 -13z"/>
<path d="M901 1383 c0 -12 -4 -30 -7 -40 -5 -17 -5 -17 6 0 6 10 9 28 7 40 -4
22 -4 22 -6 0z"/>
<path d="M1042 1350 c0 -19 2 -27 5 -17 2 9 2 25 0 35 -3 9 -5 1 -5 -18z"/>
<path d="M932 1335 c0 -16 2 -22 5 -12 2 9 2 23 0 30 -3 6 -5 -1 -5 -18z"/>
<path d="M1500 1343 c0 -13 5 -23 10 -23 13 0 13 11 0 30 -8 12 -10 11 -10 -7z"/>
<path d="M622 1330 c0 -14 2 -19 5 -12 2 6 2 18 0 25 -3 6 -5 1 -5 -13z"/>
<path d="M1541 1334 c0 -11 3 -14 6 -6 3 7 2 16 -1 19 -3 4 -6 -2 -5 -13z"/>
<path d="M1171 1324 c0 -11 3 -14 6 -6 3 7 2 16 -1 19 -3 4 -6 -2 -5 -13z"/>
<path d="M1303 1285 c0 -33 2 -45 4 -27 2 18 2 45 0 60 -2 15 -4 0 -4 -33z"/>
<path d="M1141 1314 c0 -11 3 -14 6 -6 3 7 2 16 -1 19 -3 4 -6 -2 -5 -13z"/>
<path d="M1440 1322 c0 -5 9 -21 21 -36 21 -26 43 -34 53 -17 4 5 -2 7 -12 4
-10 -2 -25 3 -33 13 -12 16 -12 17 3 11 10 -3 20 -1 24 6 4 7 3 9 -1 4 -5 -4
-19 0 -32 8 -13 9 -23 11 -23 7z"/>
<path d="M842 1262 c-2 -44 -7 -58 -29 -79 -23 -21 -24 -24 -6 -14 33 17 45
46 40 99 l-3 47 -2 -53z"/>
<path d="M987 1303 c-4 -3 -6 -31 -6 -62 l2 -56 7 60 c8 62 8 70 -3 58z"/>
<path d="M1551 1294 c0 -11 3 -14 6 -6 3 7 2 16 -1 19 -3 4 -6 -2 -5 -13z"/>
<path d="M633 1240 c0 -30 2 -43 4 -27 2 15 2 39 0 55 -2 15 -4 2 -4 -28z"/>
<path d="M1566 1245 c8 -37 14 -45 14 -19 0 10 -5 26 -10 34 -8 11 -9 7 -4
-15z"/>
<path d="M1316 1167 c3 -21 8 -45 11 -53 3 -9 -2 -14 -13 -15 -11 0 16 -13 59
-28 43 -16 97 -43 120 -61 37 -29 39 -30 17 -6 -14 15 -57 43 -96 61 -69 33
-72 35 -88 87 -13 43 -15 46 -10 15z"/>
<path d="M1586 1165 c8 -37 14 -45 14 -19 0 10 -5 26 -10 34 -8 11 -9 7 -4
-15z"/>
<path d="M345 1171 c-3 -6 -4 -11 -1 -11 2 0 1 -13 -4 -29 -4 -15 -4 -34 0
-40 4 -7 10 8 14 35 6 48 3 64 -9 45z"/>
<path d="M621 1168 c-2 -38 -27 -71 -71 -93 -47 -24 -130 -105 -130 -127 0 -7
7 -1 17 12 44 67 99 106 203 146 l35 14 -33 -6 c-32 -6 -33 -5 -22 16 6 11 9
29 7 38 -4 16 -5 16 -6 0z"/>
<path d="M991 1164 c0 -11 3 -14 6 -6 3 7 2 16 -1 19 -3 4 -6 -2 -5 -13z"/>
<path d="M735 1145 c-25 -12 -26 -14 -5 -9 28 7 60 23 45 23 -5 0 -23 -6 -40
-14z"/>
<path d="M980 1129 c0 -6 -46 -57 -103 -113 -57 -55 -90 -89 -73 -75 17 15 64
58 105 97 l74 70 42 -46 c42 -46 42 -47 28 -80 -8 -19 -12 -36 -10 -39 3 -2
10 12 17 31 6 20 16 36 21 36 5 0 2 -16 -6 -37 -8 -20 -13 -38 -11 -40 2 -3
10 12 17 31 l13 36 46 -42 c25 -24 4 -1 -47 50 -51 50 -93 99 -93 106 0 8 -4
18 -10 21 -5 3 -10 1 -10 -6z"/>
<path d="M1602 1095 c0 -16 2 -22 5 -12 2 9 2 23 0 30 -3 6 -5 -1 -5 -18z"/>
<path d="M333 1000 c0 -36 2 -50 4 -32 2 17 2 47 0 65 -2 17 -4 3 -4 -33z"/>
<path d="M1613 995 c0 -38 2 -53 4 -32 2 20 2 52 0 70 -2 17 -4 1 -4 -38z"/>
<path d="M341 894 c6 -22 15 -43 19 -48 5 -5 3 10 -3 32 -16 53 -29 66 -16 16z"/>
<path d="M1046 905 c-9 -26 -7 -32 5 -12 6 10 9 21 6 23 -2 3 -7 -2 -11 -11z"/>
<path d="M729 883 c-13 -16 -12 -17 4 -4 9 7 17 15 17 17 0 8 -8 3 -21 -13z"/>
<path d="M1016 885 c-9 -26 -7 -32 5 -12 6 10 9 21 6 23 -2 3 -7 -2 -11 -11z"/>
<path d="M1225 880 c10 -11 20 -20 23 -20 3 0 -3 9 -13 20 -10 11 -20 20 -23
20 -3 0 3 -9 13 -20z"/>
<path d="M1601 884 c0 -11 3 -14 6 -6 3 7 2 16 -1 19 -3 4 -6 -2 -5 -13z"/>
<path d="M1265 849 c4 -5 24 -18 46 -29 30 -16 39 -27 40 -48 1 -21 2 -22 6
-7 3 11 10 26 15 33 8 9 5 12 -8 12 -11 0 -38 11 -62 25 -23 13 -40 20 -37 14z"/>
<path d="M635 828 c-22 -12 -53 -25 -70 -29 l-30 -7 33 -1 c27 -1 112 41 112
55 0 6 -1 5 -45 -18z"/>
<path d="M987 809 c-9 -24 -15 -44 -13 -47 2 -2 7 6 11 19 6 17 9 19 16 8 7
-9 8 -4 3 16 -4 23 -3 26 5 15 12 -17 15 -1 3 18 -6 9 -14 0 -25 -29z"/>
<path d="M493 783 c9 -2 23 -2 30 0 6 3 -1 5 -18 5 -16 0 -22 -2 -12 -5z"/>
<path d="M1453 783 c9 -2 23 -2 30 0 6 3 -1 5 -18 5 -16 0 -22 -2 -12 -5z"/>
<path d="M591 764 c0 -11 3 -14 6 -6 3 7 2 16 -1 19 -3 4 -6 -2 -5 -13z"/>
<path d="M956 735 c-9 -26 -7 -32 5 -12 6 10 9 21 6 23 -2 3 -7 -2 -11 -11z"/>
<path d="M1328 700 c-19 -33 -98 -88 -140 -97 -21 -4 -29 -12 -32 -37 -7 -45
-15 -175 -9 -148 3 15 12 22 29 22 46 0 99 31 165 96 l65 65 84 -3 84 -3 -42
-28 c-23 -15 -42 -33 -42 -39 0 -6 12 0 28 14 42 38 121 78 157 78 43 0 51
-11 18 -25 -25 -10 -24 -11 22 -11 82 0 163 -53 205 -133 11 -20 19 -31 20
-25 1 27 -62 103 -113 137 -100 67 -163 81 -268 61 -88 -17 -135 -9 -157 25
-9 14 -20 31 -25 36 -4 6 -13 18 -20 27 -11 16 -13 15 -29 -12z"/>
<path d="M582 662 c-1 -32 -8 -52 -22 -63 -18 -16 -18 -17 20 -34 40 -18 73
-48 83 -75 3 -8 6 23 6 69 1 46 3 82 6 79 3 -3 8 -45 11 -94 3 -51 12 -99 20
-111 39 -62 147 16 193 140 9 22 8 26 -1 21 -24 -15 -94 -2 -163 30 -38 18
-81 37 -95 41 -14 4 -32 16 -40 26 -14 17 -15 15 -18 -29z"/>
<path d="M956 675 c-9 -26 -7 -32 5 -12 6 10 9 21 6 23 -2 3 -7 -2 -11 -11z"/>
<path d="M926 665 c-9 -26 -7 -32 5 -12 6 10 9 21 6 23 -2 3 -7 -2 -11 -11z"/>
<path d="M998 663 c6 -2 18 -2 25 0 6 3 1 5 -13 5 -14 0 -19 -2 -12 -5z"/>
<path d="M908 560 c-36 -80 -43 -109 -12 -48 16 30 18 31 25 13 12 -31 11
-233 -2 -241 -6 -3 -62 19 -125 50 -63 30 -114 53 -114 51 0 -2 37 -24 83 -49
81 -44 193 -83 204 -72 4 3 -2 6 -13 7 -10 0 13 9 51 20 69 20 289 118 281
126 -2 2 -30 -9 -62 -25 -62 -31 -164 -75 -201 -86 -21 -7 -23 -4 -24 31 -1
21 -3 29 -6 18 -6 -30 -25 -65 -35 -65 -5 0 -6 10 -3 23 3 12 9 74 14 137 7
91 13 117 27 127 16 11 13 13 -24 13 -40 0 -42 1 -32 21 7 11 10 22 8 25 -2 2
-20 -33 -40 -76z"/>
<path d="M300 610 c-85 -7 -93 -10 -173 -64 -51 -35 -97 -88 -97 -112 0 -5 9
5 19 22 28 46 77 79 151 104 69 23 94 36 46 24 -22 -5 -27 -4 -21 6 6 10 28
11 89 6 45 -3 92 -9 106 -12 22 -4 22 -3 -5 11 l-30 15 55 -4 c30 -2 64 -7 75
-10 11 -4 7 0 -10 8 -31 16 -79 17 -205 6z"/>
<path d="M1030 590 c-18 -12 -2 -12 25 0 13 6 15 9 5 9 -8 0 -22 -4 -30 -9z"/>
<path d="M1100 565 c0 -19 4 -35 10 -35 5 0 7 6 4 14 -3 8 -1 24 6 35 9 17 8
21 -5 21 -11 0 -15 -10 -15 -35z"/>
<path d="M1378 538 c-36 -48 -44 -68 -14 -33 28 32 50 65 43 65 -3 0 -16 -15
-29 -32z"/>
<path d="M1567 506 c-41 -34 -65 -46 -98 -49 -24 -3 8 -3 71 -1 133 5 176 -5
228 -49 34 -29 35 -29 12 -3 -30 34 -64 52 -113 61 -20 4 -34 11 -31 16 8 13
-9 11 -49 -6 -20 -8 -39 -15 -43 -15 -12 0 20 33 60 62 21 15 34 28 28 28 -5
0 -35 -20 -65 -44z"/>
<path d="M243 513 c9 -2 23 -2 30 0 6 3 -1 5 -18 5 -16 0 -22 -2 -12 -5z"/>
<path d="M993 475 c0 -27 2 -38 4 -22 2 15 2 37 0 50 -2 12 -4 0 -4 -28z"/>
<path d="M314 502 c5 -8 -1 -12 -18 -12 -14 0 -26 -4 -26 -10 0 -5 -5 -10 -12
-10 -30 0 -98 -44 -123 -81 -16 -21 -25 -42 -22 -45 3 -3 8 3 12 14 10 33 81
90 119 97 19 4 94 5 165 4 72 -2 123 -1 113 3 -9 4 -31 7 -47 7 -31 1 -113 21
-149 36 -14 6 -17 5 -12 -3z"/>
<path d="M1685 500 l-40 -7 52 -2 c28 0 55 4 58 9 7 11 -9 11 -70 0z"/>
<path d="M180 474 c-17 -10 -18 -13 -5 -8 11 3 34 10 50 14 27 7 28 8 5 9 -14
0 -36 -7 -50 -15z"/>
<path d="M839 444 c-13 -15 -37 -33 -54 -40 -19 -8 -24 -13 -12 -14 15 0 111
79 96 80 -3 0 -16 -12 -30 -26z"/>
<path d="M670 451 c0 -6 4 -13 10 -16 6 -3 7 1 4 9 -7 18 -14 21 -14 7z"/>
<path d="M1368 443 c6 -2 18 -2 25 0 6 3 1 5 -13 5 -14 0 -19 -2 -12 -5z"/>
<path d="M1310 430 c-18 -12 -2 -12 25 0 13 6 15 9 5 9 -8 0 -22 -4 -30 -9z"/>
<path d="M21 367 c-2 -81 46 -193 108 -258 77 -79 205 -107 335 -73 33 9 69
17 79 16 31 -1 18 13 -25 26 -64 20 -297 125 -346 156 -24 15 -50 41 -57 59
-8 18 -14 27 -15 20 0 -24 40 -119 79 -185 22 -38 37 -68 34 -68 -19 0 -74 46
-101 84 -47 65 -73 132 -82 211 l-7 70 -2 -58z"/>
<path d="M1942 364 c-1 -23 -4 -57 -7 -75 l-5 -34 11 33 c5 19 8 53 6 75 l-4
42 -1 -41z"/>
<path d="M1806 357 c3 -10 9 -15 12 -12 3 3 0 11 -7 18 -10 9 -11 8 -5 -6z"/>
<path d="M1820 297 c0 -28 -8 -39 -48 -69 -80 -62 -135 -73 -179 -38 -14 11
-31 20 -37 20 -10 0 22 -24 75 -55 35 -22 49 -38 49 -58 0 -20 -1 -20 -24 2
-23 21 -26 22 -46 8 -15 -11 -18 -16 -8 -20 7 -3 0 -6 -17 -7 -19 -2 -10 -5
27 -11 32 -4 69 -16 83 -25 40 -26 125 -14 125 17 0 6 23 38 50 72 28 34 50
66 50 71 0 5 -14 -10 -30 -32 -30 -42 -49 -53 -51 -29 0 6 -4 3 -9 -8 -5 -12
-6 24 -3 88 3 59 3 107 0 107 -4 0 -7 -15 -7 -33z m-170 -202 c10 -13 9 -15
-9 -15 -12 0 -21 6 -21 15 0 8 4 15 9 15 5 0 14 -7 21 -15z"/>
<path d="M1871 304 c0 -11 3 -14 6 -6 3 7 2 16 -1 19 -3 4 -6 -2 -5 -13z"/>
<path d="M1128 293 c7 -3 16 -2 19 1 4 3 -2 6 -13 5 -11 0 -14 -3 -6 -6z"/>
<path d="M1082 278 c-7 -7 -29 -12 -50 -11 l-37 2 35 -8 c19 -4 46 -11 60 -16
23 -7 24 -6 11 9 -13 15 -13 19 0 27 8 5 9 9 4 9 -6 0 -17 -6 -23 -12z"/>
<path d="M1218 260 c35 -17 67 -30 70 -30 13 1 -103 59 -118 60 -8 0 14 -14
48 -30z"/>
<path d="M1862 250 c0 -14 2 -19 5 -12 2 6 2 18 0 25 -3 6 -5 1 -5 -13z"/>
<path d="M1428 213 c23 -2 59 -2 80 0 20 2 1 4 -43 4 -44 0 -61 -2 -37 -4z"/>
<path d="M1846 194 c-4 -14 -5 -28 -3 -31 3 -2 8 8 11 23 4 14 5 28 3 31 -3 2
-8 -8 -11 -23z"/>
<path d="M1558 103 c7 -3 16 -2 19 1 4 3 -2 6 -13 5 -11 0 -14 -3 -6 -6z"/>
<path d="M1528 63 c7 -3 16 -2 19 1 4 3 -2 6 -13 5 -11 0 -14 -3 -6 -6z"/>
<path d="M580 56 c0 -2 9 -6 20 -9 11 -3 18 -1 14 4 -5 9 -34 13 -34 5z"/>
<path d="M708 43 c23 -2 61 -2 85 0 23 2 4 4 -43 4 -47 0 -66 -2 -42 -4z"/>
<path d="M1228 43 c6 -2 18 -2 25 0 6 3 1 5 -13 5 -14 0 -19 -2 -12 -5z"/>
<path d="M1428 43 c7 -3 16 -2 19 1 4 3 -2 6 -13 5 -11 0 -14 -3 -6 -6z"/>
<path d="M1323 33 c9 -2 23 -2 30 0 6 3 -1 5 -18 5 -16 0 -22 -2 -12 -5z"/>
</g>
</svg>
