<?xml version="1.0" standalone="no"?>
<!DOCTYPE svg PUBLIC "-//W3C//DTD SVG 20010904//EN"
 "http://www.w3.org/TR/2001/REC-SVG-20010904/DTD/svg10.dtd">
<svg version="1.0" xmlns="http://www.w3.org/2000/svg"
 width="593.000000pt" height="381.000000pt" viewBox="0 0 593.000000 381.000000"
 preserveAspectRatio="xMidYMid meet">

<g transform="translate(0.000000,381.000000) scale(0.100000,-0.100000)"
fill="#000000" stroke="none">
<path d="M4960 3733 c-114 -99 -114 -99 -149 -74 -42 30 -96 28 -117 -4 -15
-24 -15 -29 0 -68 9 -23 16 -46 16 -49 0 -3 -27 -29 -60 -56 -54 -46 -63 -50
-99 -45 -34 5 -41 2 -56 -20 -11 -17 -15 -36 -11 -54 6 -27 -2 -35 -131 -138
-320 -254 -664 -526 -743 -588 -47 -37 -92 -67 -101 -67 -9 0 -52 16 -95 36
-244 112 -450 141 -608 85 -153 -54 -306 -222 -433 -477 -43 -85 -62 -114 -76
-114 -20 0 -103 30 -352 125 -77 29 -180 65 -230 79 -49 14 -144 41 -210 60
-363 103 -516 126 -821 126 -342 -1 -568 -58 -649 -164 -26 -34 -27 -38 -22
-148 6 -155 102 -604 171 -794 13 -38 34 -96 46 -129 12 -33 45 -105 73 -160
41 -79 69 -117 132 -181 123 -125 325 -248 465 -284 25 -6 62 -18 83 -26 134
-51 435 -109 672 -129 169 -14 302 26 455 139 41 30 69 45 79 40 70 -28 186
-64 208 -64 39 0 47 -8 72 -64 35 -80 128 -211 186 -263 104 -94 322 -202 450
-225 63 -11 254 -30 320 -31 134 -2 452 39 570 74 39 11 102 29 140 39 283 77
657 282 828 455 36 36 72 80 81 99 25 54 30 133 11 201 -9 33 -21 77 -26 98
-19 79 -174 334 -285 472 -66 82 -347 387 -387 421 -17 14 -81 73 -142 130
-60 56 -144 130 -185 164 -41 34 -95 81 -120 104 -25 23 -61 54 -80 68 -19 15
-48 37 -63 50 l-29 24 144 140 c141 138 203 197 508 485 207 196 213 201 243
193 35 -8 67 25 67 70 0 31 9 43 80 106 45 39 84 68 89 66 4 -3 31 -21 59 -40
28 -19 111 -57 184 -85 162 -62 249 -105 281 -137 14 -14 37 -50 52 -82 39
-81 33 -176 -17 -282 -48 -105 -135 -181 -303 -269 -107 -55 -180 -71 -232
-48 -47 20 -122 34 -108 19 6 -5 28 -15 50 -22 80 -25 82 -50 4 -50 -60 0 -65
-15 -7 -23 23 -3 48 -14 55 -23 18 -24 16 -89 -2 -104 -16 -13 -20 -40 -7 -40
13 0 48 41 66 78 9 17 21 32 27 32 19 0 30 -50 18 -92 -11 -43 -6 -59 13 -40
7 7 12 45 12 94 l1 82 114 63 c176 97 259 168 321 273 47 80 61 128 62 225 0
66 -4 84 -31 140 -20 41 -49 79 -76 102 -73 61 -35 70 98 24 103 -35 182 -85
239 -151 63 -72 83 -133 83 -256 l0 -100 -53 -104 c-80 -157 -136 -235 -248
-347 -102 -103 -129 -118 -154 -87 -21 24 -79 45 -147 51 -44 4 -63 2 -63 -6
0 -6 16 -11 36 -11 36 0 74 -15 74 -29 0 -4 -27 -15 -60 -24 -33 -10 -60 -22
-60 -27 0 -14 11 -13 53 5 48 20 96 19 104 -1 4 -10 -8 -30 -33 -55 -24 -25
-33 -39 -23 -39 9 0 26 11 39 25 13 14 29 25 37 25 16 0 18 -62 3 -91 -21 -38
17 -20 44 22 39 58 51 47 49 -42 -2 -67 -1 -72 13 -55 17 24 19 124 2 162 -14
29 -18 24 127 148 161 136 298 350 335 521 17 78 14 140 -11 218 -19 61 -32
81 -84 133 -69 70 -188 132 -340 178 -357 109 -525 177 -525 213 0 10 35 49
77 88 l77 71 -12 42 c-21 69 -37 69 -122 -5z m50 -41 c0 -7 -131 -137 -273
-272 l-57 -54 -23 23 -22 22 40 36 c22 19 101 84 175 144 124 99 160 122 160
101z m-219 -52 l24 -20 -30 -25 c-34 -29 -60 -32 -69 -9 -24 61 25 97 75 54z
m-202 -236 c25 -10 48 -29 61 -50 24 -41 24 -43 5 -68 -14 -18 -16 -17 -54 17
-22 20 -52 39 -66 43 -27 7 -35 40 -13 62 15 15 20 15 67 -4z m-15 -107 c9
-16 -3 -31 -87 -113 l-98 -95 -34 28 c-19 15 -33 33 -32 40 1 6 47 46 101 88
102 78 129 87 150 52z m-246 -183 c26 -18 29 -56 6 -75 -13 -11 -21 -7 -51 24
-31 30 -35 38 -24 51 17 20 40 20 69 0z m-59 -70 c12 -15 21 -30 21 -35 0 -9
-41 -49 -50 -49 -4 0 -21 18 -39 41 -32 38 -32 41 -15 54 29 22 61 18 83 -11z
m-75 -68 c9 -14 16 -32 16 -39 0 -17 -233 -237 -251 -237 -19 0 -89 71 -89 90
0 8 26 34 58 57 31 24 92 72 135 108 85 70 97 72 131 21z m-305 -248 c75 -79
38 -111 -38 -34 -29 29 -42 50 -38 60 10 27 34 18 76 -26z m-85 -14 c9 -8 16
-20 16 -25 0 -20 -53 -79 -71 -79 -22 0 -69 21 -69 31 0 8 92 88 102 89 4 0
14 -7 22 -16z m-757 -55 c153 -35 244 -65 326 -106 37 -18 67 -37 67 -42 0 -6
-399 -330 -475 -385 -7 -5 -20 -6 -28 -3 -25 9 -112 132 -158 224 -50 97 -60
162 -34 217 37 79 180 123 302 95z m817 -5 c26 -10 18 -38 -23 -78 -26 -25
-45 -37 -56 -33 -14 6 -14 9 1 39 39 76 47 84 78 72z m-161 -53 c40 -17 46
-24 52 -59 6 -38 5 -40 -70 -113 -42 -41 -82 -75 -89 -77 -17 -4 -129 115
-121 129 9 14 167 139 176 139 4 0 28 -9 52 -19z m-1018 -117 c8 -69 71 -194
156 -311 32 -45 59 -86 59 -91 0 -6 -19 -24 -42 -41 l-42 -31 -32 31 c-58 56
-153 227 -185 332 l-20 68 22 32 c59 86 74 88 84 11z m830 -92 c56 -61 57 -63
40 -82 -10 -11 -22 -20 -27 -20 -19 0 -108 119 -108 143 0 14 17 27 31 24 3
-1 32 -30 64 -65z m-2500 22 c66 -8 149 -22 185 -29 36 -8 99 -22 140 -30 129
-27 511 -147 701 -221 210 -81 246 -102 240 -138 -27 -141 -41 -222 -48 -266
l-8 -55 -69 -8 c-86 -9 -245 -51 -299 -78 -38 -20 -46 -20 -135 -9 -53 6 -129
21 -171 31 -154 40 -649 209 -756 259 -22 10 -78 36 -125 58 -78 35 -197 102
-328 184 -55 34 -141 120 -173 172 -13 22 -15 34 -8 48 25 46 178 82 409 96
163 10 285 6 445 -14z m2401 -29 c16 -24 16 -27 -2 -46 -27 -30 -59 -40 -89
-29 -34 13 -32 25 13 65 44 42 56 43 78 10z m392 -128 c59 -50 159 -135 222
-188 150 -125 182 -156 346 -329 323 -342 506 -594 598 -823 69 -173 1 -280
-167 -264 -93 9 -184 42 -356 130 -206 105 -206 105 -499 326 -134 101 -607
557 -716 690 l-59 72 29 29 c145 145 472 449 482 450 7 0 61 -42 120 -93z
m-1258 54 c0 -11 -11 -55 -24 -98 -13 -43 -29 -97 -35 -120 -12 -43 -12 -43
-57 -43 -45 0 -46 1 -39 28 3 15 34 78 68 140 58 106 87 137 87 93z m936 -12
l29 -30 -38 -35 c-21 -19 -42 -32 -47 -29 -22 14 -6 125 18 125 5 0 21 -14 38
-31z m-186 -4 c14 -8 39 -14 56 -15 29 0 32 -3 44 -53 l12 -53 -68 -65 c-147
-139 -181 -169 -196 -169 -21 0 -126 115 -134 146 -5 18 0 29 17 43 13 10 68
55 123 100 54 44 103 81 110 81 6 -1 22 -7 36 -15z m-3170 -111 c113 -114 340
-249 615 -366 33 -14 103 -44 155 -66 52 -22 127 -50 165 -62 39 -12 102 -32
140 -45 125 -41 298 -94 370 -112 78 -21 87 -33 53 -76 l-23 -27 -220 56
c-262 66 -346 96 -742 267 -232 101 -516 295 -580 396 -25 39 -31 101 -10 101
7 0 42 -30 77 -66z m2498 -39 c13 -26 21 -53 18 -60 -5 -15 -77 -28 -89 -16
-12 12 23 133 37 128 6 -2 21 -25 34 -52z m453 -185 c47 -46 51 -63 18 -81
-27 -14 -78 27 -130 104 l-41 62 24 18 23 19 30 -38 c16 -22 50 -59 76 -84z
m-364 38 c13 -12 23 -29 23 -37 -1 -21 -167 -151 -192 -151 -19 0 -20 6 -17
84 2 46 7 87 11 91 9 9 98 33 127 34 14 1 35 -9 48 -21z m209 5 c19 -26 17
-40 -12 -79 -30 -39 -74 -48 -74 -15 0 11 -3 26 -6 35 -4 10 5 27 26 46 37 35
48 37 66 13z m-2771 -23 c49 -34 50 -37 60 -180 3 -47 11 -109 16 -139 10 -48
9 -55 -9 -73 -11 -11 -24 -18 -30 -15 -9 6 -44 147 -77 312 -9 45 -18 91 -22
103 -8 30 10 28 62 -8z m2309 -95 l0 -110 -60 -32 c-75 -41 -84 -41 -84 0 0
36 36 232 45 248 4 5 28 9 53 7 l47 -3 -1 -110z m346 27 c0 -28 26 -57 52 -57
18 0 22 -5 20 -24 -4 -35 26 -63 59 -56 15 3 30 2 33 -4 6 -9 -160 -171 -175
-171 -17 0 -198 162 -193 173 8 19 175 157 191 157 7 0 13 -8 13 -18z m208
-25 c41 -42 42 -44 24 -60 -27 -25 -125 -28 -130 -5 -5 24 34 108 50 108 8 0
33 -19 56 -43z m-2710 -6 c20 -10 46 -28 56 -40 19 -21 19 -22 -25 -93 -24
-39 -49 -73 -55 -75 -6 -2 -16 20 -23 53 -14 72 -15 174 -1 174 6 0 27 -9 48
-19z m2904 -133 c232 -264 583 -602 793 -762 145 -111 372 -247 555 -334 61
-29 203 -62 268 -62 35 0 52 -4 52 -12 -1 -28 -152 -108 -203 -108 -10 0 -46
9 -80 21 -322 108 -671 346 -1051 719 -93 91 -190 187 -215 215 -25 27 -99
105 -163 173 -65 69 -118 129 -118 135 0 15 71 87 86 87 7 0 41 -32 76 -72z
m-2596 -49 c13 -11 33 -86 70 -261 l27 -127 -29 -25 c-56 -48 -205 -117 -258
-119 l-48 -2 -14 45 c-22 71 -74 322 -74 355 0 22 19 54 71 120 39 50 76 93
81 96 9 6 147 -59 174 -82z m1971 21 c2 -9 -25 -31 -71 -57 l-74 -42 -41 17
c-24 10 -40 23 -39 31 2 7 32 22 68 32 36 11 76 23 90 28 35 13 64 9 67 -9z
m488 -117 c112 -122 211 -236 222 -258 14 -25 -6 -78 -35 -94 -52 -28 -408
-67 -429 -47 -14 12 1 119 30 221 8 28 23 82 32 120 14 52 27 78 52 103 18 17
38 32 45 32 6 0 43 -35 83 -77z m-400 47 c7 -12 -82 -120 -99 -120 -13 0 -66
47 -66 58 0 10 120 71 142 71 9 1 20 -4 23 -9z m-1846 -37 c63 -25 91 -42 91
-53 0 -33 -121 -190 -146 -190 -13 0 -26 48 -48 180 -14 83 -14 100 4 100 5 0
50 -17 99 -37z m1465 7 c31 -11 34 -35 7 -49 -14 -8 -31 -6 -65 10 -25 11 -46
24 -46 29 0 18 66 25 104 10z m469 -58 l26 -28 -31 -77 c-18 -42 -37 -77 -43
-77 -7 0 -26 18 -44 40 -24 30 -30 46 -25 63 10 32 65 107 79 107 6 0 23 -13
38 -28z m-662 2 c65 -19 76 -33 46 -56 -30 -23 -45 -22 -111 7 -31 14 -64 25
-74 25 -25 0 -46 16 -38 29 10 16 114 13 177 -5z m342 -30 c43 -29 43 -38 5
-62 -25 -15 -28 -14 -62 12 -38 28 -44 44 -24 64 18 18 40 15 81 -14z m-1353
-21 c93 -33 96 -35 105 -81 3 -20 24 -86 46 -145 21 -60 39 -112 39 -116 0
-24 -332 -274 -357 -269 -16 3 -34 46 -77 183 -13 44 -34 108 -47 142 l-23 62
75 78 c41 43 90 100 109 125 19 26 40 48 45 48 6 0 44 -12 85 -27z m-836 -5
c2 -7 9 -42 15 -78 7 -36 15 -75 18 -87 4 -17 1 -23 -10 -23 -23 0 -71 154
-57 181 12 22 29 25 34 7z m1729 -49 c47 -16 107 -44 133 -61 172 -109 367
-306 429 -433 65 -132 55 -247 -25 -288 -110 -57 -404 53 -589 219 -56 50
-137 154 -184 235 -77 131 -73 274 8 337 42 33 123 30 228 -9z m324 -6 c30
-20 57 -42 60 -50 6 -16 -24 -53 -44 -53 -17 0 -133 89 -133 101 0 9 40 39 53
39 5 0 33 -16 64 -37z m253 -18 c21 -23 22 -27 9 -51 -19 -37 -36 -40 -65 -14
-30 29 -30 37 -2 67 27 29 29 29 58 -2z m-1178 -13 c41 -10 68 -22 68 -30 0
-29 -94 -152 -116 -152 -15 0 -78 186 -68 202 3 5 16 7 28 4 11 -4 51 -14 88
-24z m209 -49 c13 -4 18 -21 21 -76 3 -59 10 -85 42 -147 21 -41 47 -87 57
-102 11 -14 19 -32 19 -38 0 -19 -83 -130 -133 -179 l-45 -43 -15 23 c-28 46
-122 214 -136 244 -8 16 -23 46 -32 66 l-18 37 86 108 c94 120 101 127 123
118 8 -4 22 -8 31 -11z m878 -50 c39 -33 43 -40 38 -71 -4 -18 -11 -40 -18
-48 -10 -13 -18 -9 -51 23 -56 54 -62 67 -43 103 9 16 19 30 23 30 5 0 28 -17
51 -37z m190 8 c24 -34 24 -34 10 -83 -5 -21 -15 -38 -22 -38 -7 1 -24 19 -40
41 -23 34 -26 43 -16 62 29 55 40 58 68 18z m-1895 -176 c14 -44 41 -127 61
-184 26 -74 33 -107 25 -116 -10 -12 -104 -57 -145 -69 -51 -15 -226 129 -291
239 -33 56 -27 65 64 95 77 26 137 56 202 99 24 17 47 27 51 23 4 -4 18 -43
33 -87z m2764 -35 l104 -100 -7 -77 c-4 -44 -13 -83 -20 -88 -18 -15 -293 -80
-302 -72 -6 7 19 292 34 376 4 25 13 36 37 47 17 7 36 13 41 13 6 0 57 -44
113 -99z m-916 18 c52 -104 61 -238 9 -155 -11 18 -35 51 -52 73 -27 35 -30
43 -24 84 12 79 26 79 67 -2z m642 33 c3 -5 1 -35 -5 -67 -6 -33 -14 -124 -18
-204 l-6 -145 -49 -12 c-77 -19 -346 -55 -363 -49 -13 5 -14 36 -11 212 3 181
5 207 20 218 11 8 68 15 145 19 71 4 155 13 188 21 75 17 92 18 99 7z m-529
-128 c-4 -49 -11 -149 -14 -223 l-6 -135 -34 -3 c-32 -3 -33 -2 -27 25 4 15
11 55 15 88 5 33 15 94 21 135 7 41 10 103 6 138 -5 62 -5 62 21 62 l26 0 -8
-87z m-1368 -31 c41 -86 100 -195 129 -240 19 -29 14 -36 -64 -89 -31 -22 -78
-55 -104 -73 -48 -34 -48 -34 -100 -21 -81 19 -150 44 -178 62 -24 16 -85 124
-92 164 -2 14 14 31 62 65 64 44 170 127 240 189 19 16 42 30 50 30 9 0 32
-35 57 -87z m520 -142 c47 -44 117 -100 154 -123 41 -25 69 -49 69 -59 0 -21
-33 -44 -143 -101 -97 -50 -168 -70 -202 -57 -29 11 -154 149 -162 178 -4 19
8 37 64 95 38 40 82 89 97 110 16 20 30 37 32 37 2 0 43 -36 91 -80z m1994
-56 c19 -14 64 -45 100 -70 81 -54 86 -60 95 -111 8 -52 2 -56 -178 -129 -105
-42 -135 -51 -145 -41 -22 23 -59 314 -42 332 12 11 96 45 115 45 11 0 36 -12
55 -26z m-2956 -74 c20 -39 23 -52 12 -56 -17 -6 -137 47 -137 61 0 12 58 43
82 44 11 1 27 -17 43 -49z m2717 -70 c3 -52 11 -129 16 -170 6 -41 9 -77 6
-81 -7 -11 -119 -46 -209 -65 -134 -28 -132 -28 -139 -7 -8 25 -11 341 -4 349
11 10 273 73 298 71 24 -2 25 -5 32 -97z m-2039 -52 c31 -37 57 -72 57 -78 0
-21 -270 4 -277 26 -2 7 28 33 66 59 39 25 73 51 77 56 9 15 16 9 77 -63z
m1637 -119 c3 -96 2 -179 -3 -185 -4 -7 -36 -17 -70 -23 -96 -16 -295 -34
-311 -28 -23 9 -36 71 -43 204 -4 87 -3 126 6 136 7 9 42 17 90 21 44 4 130
18 193 31 62 13 118 22 123 21 6 -2 12 -73 15 -177z m-526 84 c5 -21 18 -161
20 -220 0 -24 -3 -44 -9 -45 -27 -6 -202 240 -191 268 4 10 28 14 90 14 72 0
85 -3 90 -17z m1640 -57 c72 -35 161 -75 199 -87 37 -13 67 -30 67 -36 0 -21
-265 -143 -311 -143 -22 0 -62 60 -97 145 -42 102 -45 128 -21 159 11 14 23
26 26 26 3 0 64 -29 137 -64z m-238 -71 c17 -57 48 -126 79 -175 14 -23 24
-48 22 -54 -7 -17 -319 -115 -369 -116 -13 0 -29 39 -59 147 -24 87 -27 109
-17 119 7 6 53 26 102 44 48 18 111 43 140 56 70 32 88 28 102 -21z m-426
-142 c0 -8 14 -56 30 -106 17 -50 29 -96 26 -102 -7 -18 -212 -38 -302 -30
-61 6 -78 11 -88 29 -17 26 -30 142 -18 150 5 3 70 21 143 40 74 19 145 39
159 44 28 11 50 -1 50 -25z m-442 -90 c5 -10 12 -39 15 -65 9 -70 -3 -76 -116
-54 -135 25 -250 68 -231 85 5 4 74 15 154 25 79 9 146 19 149 21 9 10 21 5
29 -12z"/>
<path d="M903 2230 c-86 -17 -129 -53 -118 -97 28 -115 344 -233 618 -233 101
0 130 4 167 21 62 28 80 47 80 84 0 93 -253 200 -533 225 -127 11 -155 11
-214 0z"/>
<path d="M3600 1955 c-18 -19 -22 -31 -17 -60 25 -157 295 -439 538 -562 58
-30 85 -37 129 -38 136 0 147 83 31 240 -78 106 -162 194 -263 276 -186 151
-356 210 -418 144z"/>
<path d="M1815 1377 c-65 -30 -69 -86 -13 -197 63 -126 272 -297 427 -350 98
-33 156 -22 192 37 20 32 21 40 10 86 -16 69 -59 133 -140 210 -77 72 -131
111 -211 153 -120 62 -214 83 -265 61z m111 -77 c28 0 27 -31 -2 -61 -37 -38
-50 -37 -65 8 -10 32 -10 38 7 50 10 7 25 11 32 8 8 -3 20 -5 28 -5z m197 -98
c15 -17 13 -22 -41 -82 l-58 -63 -34 31 -35 32 52 50 c56 54 88 63 116 32z
m127 -109 c0 -22 -69 -113 -87 -113 -23 0 -53 19 -53 34 0 8 22 37 49 66 43
46 51 51 70 41 12 -7 21 -19 21 -28z m95 -115 c16 -30 17 -39 6 -52 -20 -24
-101 -19 -101 5 0 18 53 90 64 86 6 -2 20 -19 31 -39z"/>
</g>
</svg>
